<svg width="24" height="25" viewBox="0 0 24 25" fill="none" xmlns="http://www.w3.org/2000/svg">
<path fill-rule="evenodd" clip-rule="evenodd" d="M20.3077 14.1071C20.4923 15.1786 20.6769 16.0714 21.0462 17.1429L22.1538 20.1786L21.2308 21.4286H14.7692C14.7692 22.3214 14.4 23.2143 13.6615 23.9286C12.9231 24.6429 12 25 11.0769 25C10.1538 25 9.04615 24.6429 8.49231 23.9286C7.75385 23.2143 7.38462 22.3214 7.38462 21.4286H0.923077L0 20.1786L1.10769 17.1429C1.47692 15.7143 1.84615 14.2857 1.84615 12.8571V8.92857C1.84615 7.67857 2.03077 6.42857 2.58462 5.35714C3.13846 4.10714 3.87692 3.21429 4.8 2.32143C5.72308 1.42857 6.83077 0.892857 8.12308 0.535714C9.04615 0.178571 10.1538 0 11.0769 0C10.7077 0.535714 10.3385 1.25 9.96923 1.96429C9.6 1.96429 9.23077 1.96429 8.67692 2.32143C7.75385 2.5 6.83077 3.03571 6.09231 3.75C5.35385 4.28571 4.61539 5.17857 4.24615 6.07143C3.87692 6.96429 3.69231 7.85714 3.69231 8.92857V12.8571C3.69231 14.4643 3.32308 16.0714 2.95385 17.6786L2.21538 19.6429H19.9385L19.2 17.6786C18.8769 16.7393 18.6942 15.6607 18.5298 14.6893L18.4615 14.2857C19.2 14.2857 19.7538 14.2857 20.3077 14.1071ZM11.0769 23.2143C11.4462 23.2143 12 23.0357 12.3692 22.6786C12.7385 22.3214 12.9231 21.9643 12.9231 21.4286H9.23077C9.23077 21.9643 9.41539 22.3214 9.78462 22.6786C10.1538 23.0357 10.7077 23.2143 11.0769 23.2143ZM24 5.35714C24 6.77795 23.4165 8.14056 22.3778 9.14522C21.3392 10.1499 19.9304 10.7143 18.4615 10.7143C16.9926 10.7143 15.5839 10.1499 14.5453 9.14522C13.5066 8.14056 12.9231 6.77795 12.9231 5.35714C12.9231 3.93634 13.5066 2.57373 14.5453 1.56907C15.5839 0.564412 16.9926 0 18.4615 0C19.9304 0 21.3392 0.564412 22.3778 1.56907C23.4165 2.57373 24 3.93634 24 5.35714Z" fill="#457B9D"/>
</svg>
