<svg width="808" height="683" viewBox="0 0 808 683" fill="none" xmlns="http://www.w3.org/2000/svg">
<path d="M661.914 557.219C659.748 548.79 648.986 542.097 636.785 538.641C631.371 532.959 621.433 526.525 604.465 519.517C566.877 504.027 546.596 496.022 536.189 492.047C532.777 490.806 529.079 490.228 525.367 490.355C521.656 490.483 518.026 491.313 514.745 492.784L428.499 535.991C427.32 536.474 426.027 536.724 424.717 536.724C423.407 536.724 422.115 536.474 420.936 535.991C420.69 535.875 420.467 535.727 420.273 535.554C420.454 535.384 420.667 535.241 420.903 535.13C452.545 519.517 506.907 492.621 515.423 487.894C519.673 485.517 519.56 482.43 518.041 480.368C513.823 474.589 493.284 470.232 484.331 474.617L374.443 528.246C370.727 530.063 368.69 532.74 368.884 535.581C369.094 538.627 371.761 541.305 376.221 542.944C391.638 548.599 418.382 558.803 458.233 575.223C466.879 578.593 475.016 582.826 482.473 587.831C481.73 587.735 480.986 587.667 480.243 587.599C451.898 585.263 436.611 593.827 434.445 602.775C432.7 609.933 438.922 616.53 450.282 619.59C466.232 623.893 492.056 618.347 497.647 606.572C499.047 603.637 499.19 600.38 498.051 597.365C504.855 600.548 510.22 604.974 511.496 609.946C513.242 616.776 506.923 623.948 493.219 630.641C453.708 649.915 423.731 638.072 379.114 616.298C372.747 613.184 327.983 591.519 249.672 553.653C244.631 551.209 240.443 547.684 237.529 543.435C234.615 539.185 233.079 534.36 233.076 529.448V512.25C233.021 511.635 232.694 511.06 232.159 510.64C231.624 510.221 230.921 509.987 230.191 509.987C229.461 509.987 228.759 510.221 228.224 510.64C227.689 511.06 227.361 511.635 227.307 512.25V529.462C227.311 535.232 229.117 540.899 232.541 545.89C235.966 550.881 240.889 555.02 246.812 557.888C325.123 595.754 369.87 617.418 376.237 620.519C405.438 634.767 429.436 645.189 454.145 645.189C467.606 645.189 481.261 642.102 496.161 634.862C516.49 624.945 518.785 615.287 517.169 608.908C515.003 600.425 504.871 593.718 493.43 590.167C488.081 584.443 478.11 577.941 460.867 570.838C420.92 554.377 394.094 544.146 378.629 538.464C376.302 537.617 374.815 536.401 374.75 535.294C374.686 534.188 375.672 533.314 377.433 532.453L487.321 478.81C491.797 476.625 502.431 477.84 508.959 480.381C512.401 481.747 513.306 482.867 513.371 483.031C513.436 483.195 513.225 483.332 512.369 483.81C503.966 488.482 449.701 515.324 418.108 530.923C417.048 531.321 416.148 531.971 415.516 532.793C414.884 533.615 414.548 534.574 414.548 535.554C414.548 536.534 414.884 537.493 415.516 538.315C416.148 539.137 417.048 539.786 418.108 540.185C420.174 541.1 422.473 541.578 424.806 541.578C427.139 541.578 429.438 541.1 431.504 540.185L517.75 496.964C520.243 495.904 522.978 495.312 525.767 495.227C528.556 495.142 531.333 495.567 533.91 496.473C544.285 500.448 564.501 508.425 602.041 523.888C610.685 527.262 618.822 531.495 626.281 536.496C625.521 536.401 624.778 536.333 624.035 536.264C595.69 533.928 580.403 542.493 578.253 551.441C576.508 558.598 582.73 565.196 594.09 568.256C610.04 572.559 635.864 567.013 641.439 555.238C642.913 552.147 642.999 548.708 641.681 545.567C649.228 548.722 655.223 553.23 656.516 558.257C658.229 564.964 651.49 572.245 637.011 579.307L623.857 585.727C623.551 585.501 623.221 585.3 622.871 585.126C622.461 584.871 621.978 584.714 621.473 584.671C620.967 584.628 620.456 584.7 619.995 584.88L614.258 587.612C613.748 587.346 613.169 587.191 612.571 587.16C611.974 587.129 611.376 587.223 610.832 587.435L589.274 597.966C588.712 598.29 588.265 598.737 587.98 599.259C587.696 599.781 587.584 600.359 587.658 600.931C587.665 601.31 587.702 601.689 587.772 602.064L586.98 602.502L582.132 605.07L581.194 605.575L576.346 608.198L575.474 608.662L570.529 611.326L569.737 611.749L562.998 613.99C562.896 614.042 562.804 614.106 562.724 614.181L560.897 615.547C560.705 615.716 560.556 615.918 560.461 616.14C560.367 616.361 560.328 616.596 560.348 616.831C560.4 617.61 560.667 618.367 561.127 619.043C561.587 619.719 562.228 620.295 562.998 620.724C563.234 620.855 563.499 620.945 563.776 620.987C564.054 621.029 564.339 621.024 564.614 620.97L566.941 620.369C567.071 620.342 567.196 620.301 567.313 620.246L572.985 616.435L579.013 613.771L579.918 613.375L585.024 611.121L586.01 610.684L591.052 608.457L591.925 608.075C592.273 608.315 592.64 608.534 593.024 608.731C593.569 609.064 594.21 609.269 594.88 609.324C595.55 609.379 596.226 609.283 596.837 609.045L603.301 605.917L618.459 598.513C618.597 598.447 618.722 598.364 618.831 598.267C619.209 597.968 619.51 597.606 619.716 597.204C619.922 596.802 620.027 596.369 620.027 595.931L625.748 593.131C626.141 592.94 626.452 592.648 626.636 592.298C626.86 591.867 626.97 591.401 626.96 590.932C626.956 590.592 626.912 590.253 626.83 589.921C626.83 589.921 626.83 589.921 626.83 589.825L639.952 583.419C660.944 573.119 663.514 563.475 661.914 557.219Z" fill="#E0E0E0"/>
<path d="M453.999 638.059C429.29 638.059 405.293 627.636 376.092 613.389C368.012 609.441 301.255 577.149 246.666 550.758C240.743 547.889 235.821 543.751 232.396 538.759C228.971 533.768 227.165 528.101 227.161 522.331V505.038C227.216 504.422 227.543 503.847 228.078 503.428C228.613 503.008 229.316 502.775 230.046 502.775C230.775 502.775 231.478 503.008 232.013 503.428C232.548 503.847 232.876 504.422 232.93 505.038V522.331C232.934 527.241 234.471 532.063 237.385 536.311C240.299 540.559 244.487 544.081 249.527 546.523C304.115 572.928 370.888 605.261 378.968 609.168C423.618 630.955 453.563 642.785 493.074 623.511C506.778 616.817 513.096 609.659 511.351 602.816C510.074 597.857 504.725 593.418 497.906 590.235C499.04 593.255 498.897 596.515 497.502 599.455C491.927 611.217 466.087 616.763 450.137 612.473C438.825 609.414 432.555 602.802 434.3 595.658C436.482 586.697 451.737 578.132 480.097 580.482C480.841 580.482 481.584 580.618 482.344 580.714C474.881 575.713 466.744 571.477 458.104 568.092C418.269 551.7 391.524 541.482 376.092 535.813C371.632 534.188 368.965 531.497 368.755 528.451C368.545 525.405 370.597 522.987 374.314 521.115L484.202 467.486C493.155 463.115 513.694 467.486 517.912 473.237C519.431 475.327 519.528 478.401 515.294 480.764C506.81 485.476 452.432 512.387 420.774 528.014C420.54 528.121 420.327 528.26 420.144 528.423C420.333 528.601 420.557 528.749 420.806 528.861C421.985 529.343 423.278 529.594 424.588 529.594C425.898 529.594 427.19 529.343 428.369 528.861L514.615 485.64C517.898 484.173 521.528 483.345 525.238 483.217C528.949 483.089 532.646 483.665 536.06 484.903C546.45 488.878 566.764 496.869 604.336 512.373C621.368 519.394 631.307 525.842 636.656 531.497C648.792 534.953 659.619 541.646 661.784 550.088C663.4 556.344 660.831 565.975 639.532 576.37L613.789 588.937C613.127 589.26 612.34 589.347 611.602 589.179C610.865 589.011 610.236 588.602 609.854 588.042C609.473 587.483 609.37 586.818 609.568 586.194C609.767 585.57 610.25 585.039 610.913 584.716L636.656 572.149C651.2 565.087 657.874 557.82 656.161 551.113C654.868 546.072 648.872 541.551 641.326 538.423C642.643 541.563 642.557 545.003 641.083 548.094C635.508 559.855 609.685 565.401 593.735 561.112C582.423 558.052 576.152 551.441 577.898 544.296C580.079 535.335 595.334 526.771 623.679 529.12C624.422 529.12 625.166 529.257 625.925 529.339C618.466 524.337 610.329 520.105 601.685 516.73C564.129 501.267 543.913 493.29 533.555 489.329C530.981 488.413 528.203 487.982 525.413 488.065C522.622 488.147 519.886 488.742 517.395 489.807L431.149 533.027C429.082 533.942 426.784 534.421 424.45 534.421C422.117 534.421 419.819 533.942 417.752 533.027C416.718 532.594 415.84 531.935 415.209 531.118C414.579 530.301 414.218 529.357 414.165 528.382C414.216 527.415 414.571 526.476 415.193 525.662C415.814 524.848 416.681 524.189 417.704 523.752C472.292 496.814 505.76 480.04 511.965 476.638C512.821 476.16 512.967 475.86 512.967 475.86C512.967 475.86 511.997 474.494 508.555 473.21C502.091 470.669 491.393 469.467 486.917 471.652L377.029 525.282C375.268 526.142 374.282 527.18 374.346 528.123C374.411 529.065 375.962 530.445 378.225 531.292C393.706 536.988 420.548 547.22 460.463 563.666C477.706 570.769 487.676 577.326 493.025 583.009C504.467 586.547 514.599 593.254 516.764 601.737C518.38 608.089 516.07 617.746 495.757 627.691C481.116 634.971 467.46 638.059 453.999 638.059ZM470.919 584.949C452.399 584.949 441.443 590.412 439.94 596.641C438.809 601.259 443.398 605.548 451.882 607.829C465.02 611.367 487.757 606.886 492.153 597.639C493.656 594.47 492.751 590.932 489.632 587.189C486.359 586.247 482.971 585.619 479.532 585.317C476.494 585.071 473.617 584.949 470.919 584.949ZM614.629 533.587C596.126 533.587 585.17 539.051 583.667 545.28C582.536 549.897 587.109 554.186 595.609 556.467C608.747 560.005 631.484 555.525 635.88 546.277C637.399 543.067 636.445 539.447 633.23 535.677C629.981 534.827 626.641 534.25 623.259 533.956C620.221 533.71 617.344 533.587 614.629 533.587Z" fill="#455A64"/>
<path d="M619.768 577.722C620.231 577.545 620.741 577.475 621.246 577.518C621.751 577.561 622.234 577.716 622.645 577.968C623.829 578.621 624.815 579.5 625.523 580.535C626.23 581.57 626.639 582.731 626.717 583.924C626.771 584.355 626.687 584.79 626.474 585.184C626.261 585.579 625.926 585.917 625.505 586.164L609.232 594.101L603.495 585.659L619.768 577.722Z" fill="#37474F"/>
<path opacity="0.1" d="M626.232 581.834C626.529 582.504 626.692 583.21 626.717 583.924C626.771 584.355 626.687 584.79 626.474 585.184C626.261 585.579 625.926 585.917 625.505 586.164L609.232 594.101L607.196 591.109L626.232 581.834Z" fill="black"/>
<path d="M610.444 591.874C610.368 590.681 609.959 589.519 609.251 588.484C608.544 587.449 607.557 586.57 606.372 585.918C605.963 585.668 605.484 585.512 604.982 585.467C604.481 585.421 603.974 585.487 603.511 585.659C603.09 585.906 602.756 586.245 602.543 586.639C602.329 587.033 602.245 587.468 602.299 587.899C602.376 589.093 602.785 590.254 603.492 591.289C604.2 592.324 605.186 593.203 606.372 593.855C606.759 594.149 607.247 594.332 607.765 594.378C608.283 594.424 608.805 594.331 609.256 594.111C609.708 593.891 610.066 593.557 610.279 593.155C610.492 592.754 610.55 592.305 610.444 591.874Z" fill="#37474F"/>
<path d="M610.606 580.359C611.217 580.119 611.893 580.022 612.563 580.077C613.234 580.132 613.874 580.338 614.419 580.673C615.992 581.539 617.3 582.707 618.238 584.081C619.176 585.456 619.717 586.998 619.817 588.582C619.889 589.153 619.777 589.731 619.493 590.253C619.208 590.775 618.762 591.222 618.201 591.546L596.627 602.065L589.032 590.877L610.606 580.359Z" fill="#455A64"/>
<path opacity="0.1" d="M619.17 585.809C619.569 586.682 619.787 587.606 619.817 588.541C619.889 589.112 619.777 589.69 619.492 590.212C619.208 590.734 618.762 591.181 618.201 591.505L596.627 602.024L593.945 598.076L619.17 585.809Z" fill="black"/>
<path d="M598.227 599.114C598.129 597.531 597.588 595.991 596.65 594.618C595.712 593.246 594.403 592.081 592.83 591.218C592.326 590.8 591.675 590.533 590.975 590.457C590.275 590.381 589.565 590.501 588.953 590.798C588.342 591.096 587.862 591.554 587.587 592.103C587.312 592.653 587.258 593.263 587.432 593.841C587.536 595.425 588.078 596.966 589.016 598.339C589.953 599.713 591.26 600.882 592.83 601.75C593.333 602.171 593.987 602.44 594.689 602.516C595.392 602.592 596.104 602.471 596.718 602.172C597.331 601.872 597.811 601.411 598.083 600.858C598.356 600.306 598.407 599.693 598.227 599.114Z" fill="#37474F"/>
<path d="M592.83 593.486C592.523 593.296 592.162 593.179 591.784 593.148C591.406 593.117 591.024 593.172 590.68 593.308L569.543 604.674L562.804 606.9L567.119 613.252L572.791 609.441L594.995 599.674C595.31 599.491 595.56 599.24 595.719 598.946C595.879 598.653 595.941 598.328 595.9 598.008C595.846 597.103 595.539 596.222 595.006 595.436C594.472 594.65 593.727 593.982 592.83 593.486Z" fill="#E63946"/>
<path opacity="0.7" d="M592.83 593.486C592.523 593.296 592.162 593.179 591.784 593.148C591.406 593.117 591.024 593.172 590.68 593.308L569.543 604.674L562.804 606.9L567.119 613.252L572.791 609.441L594.995 599.674C595.31 599.491 595.56 599.24 595.719 598.946C595.879 598.653 595.941 598.328 595.9 598.008C595.846 597.103 595.539 596.222 595.006 595.436C594.472 594.65 593.727 593.982 592.83 593.486Z" fill="white"/>
<path d="M564.954 607.091C564.647 606.903 564.286 606.786 563.909 606.753C563.532 606.719 563.151 606.77 562.804 606.9L562.53 607.091L560.752 608.526L564.469 613.99L566.796 613.402C566.926 613.371 567.051 613.325 567.168 613.266C567.484 613.081 567.734 612.827 567.894 612.531C568.053 612.235 568.115 611.909 568.073 611.586C568.009 610.682 567.694 609.803 567.151 609.022C566.609 608.241 565.856 607.579 564.954 607.091Z" fill="#E63946"/>
<path opacity="0.5" d="M564.954 607.091C564.647 606.903 564.286 606.786 563.909 606.753C563.532 606.719 563.151 606.77 562.804 606.9L562.53 607.091L560.752 608.526L564.469 613.99L566.796 613.402C566.926 613.371 567.051 613.325 567.168 613.266C567.484 613.081 567.734 612.827 567.894 612.531C568.053 612.235 568.115 611.909 568.073 611.586C568.009 610.682 567.694 609.803 567.151 609.022C566.609 608.241 565.856 607.579 564.954 607.091Z" fill="white"/>
<path d="M565.487 612.419C565.435 611.639 565.166 610.88 564.703 610.204C564.24 609.527 563.595 608.953 562.821 608.526C562.566 608.337 562.249 608.22 561.912 608.193C561.575 608.165 561.237 608.227 560.944 608.37C560.651 608.513 560.419 608.731 560.281 608.991C560.142 609.252 560.103 609.543 560.17 609.823C560.221 610.602 560.487 611.36 560.947 612.037C561.408 612.713 562.049 613.288 562.821 613.717C563.074 613.911 563.394 614.032 563.734 614.063C564.074 614.094 564.417 614.033 564.713 613.889C565.01 613.745 565.244 613.525 565.383 613.26C565.522 612.996 565.559 612.702 565.487 612.419Z" fill="#E63946"/>
<path d="M569.543 604.674C569.803 604.574 570.089 604.534 570.373 604.558C570.657 604.582 570.928 604.669 571.159 604.81C571.825 605.18 572.38 605.677 572.778 606.26C573.177 606.844 573.408 607.498 573.454 608.17C573.488 608.413 573.444 608.659 573.328 608.882C573.211 609.105 573.026 609.298 572.791 609.441L573.632 609.072C573.863 608.921 574.045 608.722 574.161 608.495C574.277 608.268 574.323 608.02 574.294 607.774C574.249 607.098 574.017 606.44 573.615 605.854C573.214 605.268 572.655 604.77 571.983 604.4C571.75 604.264 571.481 604.178 571.199 604.149C570.918 604.121 570.632 604.151 570.367 604.236L569.543 604.674Z" fill="#E63946"/>
<path d="M575.296 601.586C575.577 601.479 575.886 601.436 576.193 601.463C576.499 601.489 576.792 601.584 577.041 601.737C577.771 602.139 578.378 602.682 578.814 603.321C579.249 603.959 579.5 604.675 579.546 605.411C579.579 605.672 579.53 605.935 579.405 606.174C579.281 606.414 579.084 606.622 578.835 606.777L579.74 606.367C579.986 606.209 580.182 606.001 580.309 605.762C580.436 605.524 580.49 605.262 580.467 605.001C580.417 604.268 580.165 603.555 579.73 602.919C579.295 602.283 578.689 601.743 577.962 601.34C577.707 601.183 577.408 601.083 577.095 601.05C576.781 601.016 576.463 601.051 576.169 601.149L575.296 601.586Z" fill="#E63946"/>
<path d="M581.017 598.499C581.321 598.385 581.656 598.339 581.988 598.368C582.32 598.397 582.637 598.499 582.907 598.663C583.697 599.099 584.354 599.686 584.826 600.377C585.298 601.067 585.57 601.842 585.622 602.638C585.659 602.922 585.607 603.209 585.471 603.471C585.334 603.732 585.119 603.958 584.847 604.127L585.832 603.69C586.105 603.512 586.32 603.278 586.456 603.01C586.591 602.743 586.644 602.45 586.608 602.16C586.556 601.364 586.283 600.589 585.812 599.899C585.34 599.208 584.683 598.621 583.893 598.185C583.615 598.017 583.292 597.912 582.953 597.878C582.614 597.845 582.27 597.885 581.954 597.994L581.017 598.499Z" fill="#E63946"/>
<path d="M586.753 595.412C587.082 595.29 587.442 595.242 587.799 595.273C588.156 595.304 588.498 595.413 588.79 595.59C589.64 596.058 590.348 596.689 590.856 597.432C591.364 598.175 591.658 599.009 591.715 599.865C591.754 600.174 591.695 600.486 591.545 600.769C591.394 601.053 591.157 601.297 590.858 601.477L591.941 600.999C592.233 600.809 592.462 600.558 592.607 600.271C592.751 599.984 592.806 599.67 592.765 599.36C592.711 598.504 592.419 597.672 591.914 596.929C591.408 596.186 590.704 595.554 589.856 595.084C589.557 594.9 589.207 594.783 588.839 594.745C588.472 594.707 588.099 594.748 587.755 594.866L586.753 595.412Z" fill="#E63946"/>
<g opacity="0.1">
<path opacity="0.1" d="M569.543 604.674C569.803 604.574 570.089 604.534 570.373 604.558C570.657 604.582 570.928 604.669 571.159 604.81C571.825 605.18 572.38 605.677 572.778 606.26C573.177 606.844 573.408 607.498 573.454 608.17C573.488 608.413 573.444 608.659 573.328 608.882C573.211 609.105 573.026 609.298 572.791 609.441L573.632 609.072C573.863 608.921 574.045 608.722 574.161 608.495C574.277 608.268 574.323 608.02 574.294 607.774C574.249 607.098 574.017 606.44 573.615 605.854C573.214 605.268 572.655 604.77 571.983 604.4C571.75 604.264 571.481 604.178 571.199 604.149C570.918 604.121 570.632 604.151 570.367 604.236L569.543 604.674Z" fill="black"/>
<path opacity="0.1" d="M575.296 601.586C575.577 601.479 575.886 601.436 576.193 601.463C576.5 601.489 576.792 601.584 577.042 601.737C577.772 602.139 578.379 602.682 578.814 603.321C579.249 603.959 579.5 604.675 579.547 605.411C579.579 605.672 579.531 605.935 579.406 606.174C579.281 606.414 579.084 606.622 578.835 606.777L579.74 606.367C579.987 606.209 580.182 606.001 580.309 605.762C580.436 605.524 580.491 605.262 580.468 605.001C580.418 604.268 580.165 603.555 579.73 602.919C579.295 602.283 578.69 601.743 577.963 601.34C577.707 601.183 577.409 601.083 577.095 601.05C576.781 601.016 576.463 601.051 576.169 601.149L575.296 601.586Z" fill="black"/>
<path opacity="0.1" d="M581.017 598.499C581.322 598.385 581.657 598.339 581.988 598.368C582.32 598.397 582.637 598.499 582.908 598.663C583.697 599.099 584.355 599.686 584.826 600.377C585.298 601.067 585.571 601.842 585.623 602.638C585.659 602.922 585.607 603.209 585.471 603.471C585.335 603.732 585.12 603.958 584.847 604.127L585.833 603.69C586.106 603.512 586.32 603.278 586.456 603.01C586.592 602.743 586.644 602.45 586.608 602.16C586.556 601.364 586.284 600.589 585.812 599.899C585.34 599.208 584.683 598.621 583.893 598.185C583.616 598.017 583.292 597.912 582.953 597.878C582.614 597.845 582.27 597.885 581.954 597.994L581.017 598.499Z" fill="black"/>
<path opacity="0.1" d="M586.753 595.412C587.082 595.29 587.442 595.242 587.799 595.273C588.156 595.304 588.498 595.413 588.79 595.59C589.64 596.058 590.348 596.689 590.856 597.432C591.364 598.175 591.658 599.009 591.715 599.865C591.754 600.174 591.695 600.486 591.545 600.769C591.394 601.053 591.157 601.297 590.858 601.477L591.941 600.999C592.233 600.809 592.462 600.558 592.607 600.271C592.751 599.984 592.806 599.67 592.765 599.36C592.711 598.504 592.419 597.672 591.914 596.929C591.408 596.186 590.704 595.554 589.856 595.084C589.557 594.9 589.207 594.783 588.839 594.745C588.472 594.707 588.099 594.748 587.755 594.866L586.753 595.412Z" fill="black"/>
</g>
<path d="M381.554 259.267C380.956 259.472 380.358 259.663 379.792 259.909C379.227 260.155 378.871 260.319 378.435 260.524C377.999 260.728 377.336 261.056 376.819 261.343C376.302 261.63 375.962 261.849 375.542 262.122C375.122 262.395 374.556 262.777 374.072 263.133C373.587 263.488 373.296 263.72 372.924 264.034C372.553 264.348 372.019 264.813 371.583 265.223C371.147 265.632 370.888 265.919 370.549 266.274C370.209 266.63 369.741 267.176 369.353 267.64C368.965 268.105 368.755 268.378 368.48 268.76L368.286 269.034C367.979 269.471 367.688 269.922 367.414 270.4C367.317 270.536 367.236 270.673 367.155 270.809C366.929 271.178 366.703 271.561 366.509 271.943C366.315 272.326 366.153 272.626 365.992 272.968C365.83 273.309 365.765 273.391 365.668 273.623L365.378 274.238C365.184 274.675 365.006 275.126 364.844 275.604C364.683 276.082 364.537 276.396 364.408 276.793C364.166 277.517 363.923 278.254 363.729 279.019C363.578 279.529 363.449 280.048 363.341 280.576C363.341 280.863 363.212 281.136 363.147 281.437C363.083 281.737 363.018 282.052 362.97 282.38C362.824 283.144 362.727 283.95 362.63 284.756C362.63 285.139 362.517 285.508 362.485 285.89C362.485 286.04 362.485 286.177 362.485 286.327C362.372 287.693 362.307 288.977 362.307 290.357C362.354 295.919 363.14 301.458 364.65 306.872C370.662 329.206 387.84 352.291 408.848 365.501C411.309 367.075 413.878 368.525 416.54 369.844L417.639 370.35C418.253 370.637 418.867 370.937 419.481 371.197L420.887 371.784L422.406 372.399L423.941 372.959L425.283 373.423C425.816 373.601 426.333 373.765 426.899 373.915L428.175 374.284L429.711 374.694L431.068 374.994L432.458 375.295L434.3 375.595L435.157 375.732L435.884 375.8L446.905 370.446C440.075 369.519 433.519 367.493 427.594 364.476C397.536 349.833 373.296 314.18 373.296 284.948C373.296 273.077 377.304 264.089 384.059 258.543L382.992 258.802C382.491 258.939 382.022 259.103 381.554 259.267Z" fill="#263238"/>
<path d="M391.282 249.377C389.604 249.872 387.981 250.494 386.434 251.235L375.461 256.589C380.292 254.279 385.733 253.035 391.282 252.97V249.377Z" fill="#37474F"/>
<path d="M435.173 375.732L434.316 375.595L432.474 375.295L431.084 374.994L430.179 374.803L429.727 374.694L428.24 374.284L426.963 373.915L425.347 373.423L424.006 372.959L422.471 372.399L420.952 371.784L419.546 371.197C418.932 370.937 418.302 370.637 417.671 370.336C417.332 370.172 416.976 370.036 416.621 369.858C414.054 368.581 411.573 367.186 409.187 365.678C402.346 361.37 396.144 356.38 390.716 350.816C386.028 346.041 381.823 340.942 378.144 335.572C372.068 326.767 367.544 317.259 364.715 307.35L364.618 306.886C363.11 301.481 362.324 295.951 362.275 290.398C362.275 289.114 362.275 287.871 362.436 286.641C362.436 286.464 362.436 286.286 362.436 286.109C362.428 285.986 362.428 285.863 362.436 285.74C362.533 284.715 362.663 283.705 362.84 282.721L362.937 282.093C362.937 281.765 363.083 281.464 363.148 281.136C363.212 280.809 363.358 280.235 363.471 279.77C363.584 279.306 363.697 278.814 363.826 278.404C363.956 277.995 364.149 277.421 364.327 276.929C364.327 276.738 364.44 276.547 364.505 276.369C364.57 276.192 364.505 276.219 364.586 276.151C364.731 275.754 364.877 275.345 365.038 274.948C365.2 274.552 365.458 274.02 365.685 273.582C365.911 273.145 366.234 272.394 366.557 271.82C366.88 271.247 367.026 271.028 367.268 270.632L367.559 270.167C367.818 269.758 368.092 269.362 368.367 268.965C368.642 268.569 368.9 268.269 369.175 267.927L369.547 267.476C369.741 267.217 369.951 266.971 370.161 266.739L370.662 266.206C370.807 266.056 370.937 265.892 371.098 265.742L371.987 264.881L372.294 264.622C372.666 264.294 373.037 263.966 373.441 263.652C373.619 263.515 373.829 263.392 374.007 263.269C374.492 262.914 374.977 262.573 375.478 262.258C375.979 261.944 376.318 261.726 376.754 261.48C377.191 261.234 377.821 260.92 378.37 260.66C378.92 260.401 379.259 260.237 379.728 260.045C380.196 259.854 380.891 259.608 381.489 259.403C382.087 259.198 382.426 259.076 382.911 258.939C383.396 258.802 383.638 258.748 384.01 258.652L384.834 258.475C385.319 258.379 385.804 258.256 386.305 258.174C386.806 258.092 387.727 257.983 388.438 257.914C389.149 257.846 389.391 257.792 389.892 257.764C390.393 257.737 390.765 257.764 391.217 257.764V253.174C385.668 253.24 380.227 254.484 375.397 256.794C374.718 257.136 374.056 257.491 373.393 257.873L373.054 258.065C371.165 259.202 369.426 260.507 367.866 261.958L367.333 262.45C366.864 262.9 366.412 263.365 365.959 263.816L365.572 264.294C364.823 265.146 364.127 266.031 363.487 266.944C363.261 267.285 363.018 267.627 362.792 267.982C362.566 268.337 362.226 268.883 361.952 269.348C361.677 269.812 361.435 270.29 361.176 270.714C360.917 271.137 360.691 271.67 360.465 272.162C360.109 272.927 359.786 273.719 359.479 274.525C359.35 274.908 359.204 275.304 359.075 275.7C358.849 276.383 358.639 277.066 358.429 277.79C358.332 278.145 358.235 278.486 358.154 278.842C357.885 279.88 357.659 280.945 357.475 282.038C357.475 282.311 357.395 282.584 357.362 282.844C357.217 283.773 357.104 284.702 357.023 285.576C357.023 285.917 357.023 286.259 356.942 286.6C356.845 287.816 356.797 289.046 356.797 290.302C356.929 298.406 358.458 306.45 361.338 314.18C362.816 318.274 364.575 322.293 366.606 326.214C367.683 328.2 368.76 330.162 369.838 332.102C373.334 337.934 377.393 343.512 381.974 348.781C391.072 359.231 402.045 368.096 413.841 373.847C418.525 376.204 423.549 378.041 428.789 379.311L435.835 375.896L435.173 375.732Z" fill="#455A64"/>
<path d="M490.472 329.356C490.472 302.637 468.285 270.154 440.91 256.794C427.174 250.101 414.763 249.486 405.794 253.898C403.063 255.264 384.786 264.157 381.99 265.482C372.973 269.84 367.446 279.238 367.446 292.638C367.446 319.357 389.634 351.841 417.009 365.2C430.713 371.894 443.124 372.508 452.092 368.11C454.84 366.744 473.262 357.81 476.025 356.458C484.929 352.087 490.472 342.702 490.472 329.356Z" fill="#E63946"/>
<path opacity="0.3" d="M490.472 329.356C490.472 302.637 468.285 270.154 440.91 256.794C427.174 250.101 414.763 249.486 405.794 253.898C403.063 255.264 384.786 264.157 381.99 265.482C372.973 269.84 367.446 279.238 367.446 292.638C367.446 319.357 389.634 351.841 417.009 365.2C430.713 371.894 443.124 372.508 452.092 368.11C454.84 366.744 473.262 357.81 476.025 356.458C484.929 352.087 490.472 342.702 490.472 329.356Z" fill="black"/>
<path d="M416.928 268.446C444.287 281.806 466.474 314.303 466.474 341.008C466.474 367.714 444.4 378.56 416.928 365.2C389.456 351.841 367.365 319.357 367.365 292.638C367.365 265.919 389.585 255.087 416.928 268.446Z" fill="#E63946"/>
<path d="M437.936 376.005H438.178C439.019 376.005 439.794 376.087 440.667 376.101H441.071C442.259 376.105 443.447 376.045 444.626 375.923H444.755C445.745 375.813 446.727 375.658 447.697 375.459C448.101 375.39 448.521 375.308 448.925 375.213C449.684 375.035 450.444 374.83 451.187 374.598C451.931 374.366 452.302 374.216 452.803 373.997C453.078 373.902 453.32 373.792 453.579 373.683C455.956 372.666 458.136 371.349 460.043 369.776C455.741 370.779 451.237 371.007 446.824 370.446L435.803 375.8C436.578 375.882 437.257 375.964 437.936 376.005Z" fill="#263238"/>
<path d="M430.325 260.524C430.606 264.105 432.435 267.474 435.463 269.99C459.073 288.335 476.332 318.114 476.332 343.344C476.332 361.703 467.218 374.762 452.318 379.147C454.222 378.623 456.049 377.917 457.764 377.043L468.737 371.689C480.404 366.006 487.353 353.931 487.353 337.962C487.353 312.746 470.078 282.953 446.468 264.622C443.448 262.101 441.621 258.734 441.33 255.155V217.986L430.325 223.368L424.895 220.718L430.325 223.368V260.524Z" fill="#37474F"/>
<path d="M435.463 269.99C432.435 267.474 430.606 264.105 430.325 260.524V223.368L424.895 220.718V262.75C424.909 263.31 424.985 263.868 425.121 264.417L425.218 264.826C425.372 265.411 425.572 265.986 425.816 266.548C426.21 267.418 426.691 268.259 427.254 269.061L427.707 269.621C428.127 270.187 428.603 270.721 429.129 271.219C429.449 271.531 429.794 271.823 430.163 272.094C431.472 273.063 432.749 274.074 434.009 275.099L435.011 275.932C436.11 276.861 437.193 277.803 438.243 278.787L438.728 279.21C439.924 280.317 441.087 281.451 442.251 282.625L443.123 283.527C444.077 284.51 445.014 285.521 445.919 286.532L446.582 287.27C447.664 288.486 448.715 289.742 449.733 290.999L450.444 291.914C451.284 292.966 452.06 294.045 452.884 295.124L453.563 296.053C454.516 297.419 455.421 298.703 456.31 300.056L456.811 300.862C457.538 301.995 458.249 303.143 458.928 304.304L459.558 305.383C460.355 306.758 461.115 308.151 461.837 309.563C461.917 309.754 462.014 309.932 462.095 310.123C462.725 311.366 463.323 312.623 463.905 313.893C464.067 314.276 464.244 314.644 464.406 315.027C465.036 316.393 465.634 317.909 466.167 319.343C466.701 320.778 467.202 322.239 467.654 323.687L467.945 324.616C468.365 325.982 468.753 327.43 469.092 328.837L469.238 329.548C469.539 330.841 469.798 332.125 470.014 333.4C470.014 333.632 470.094 333.878 470.143 334.11C470.353 335.476 470.531 336.842 470.644 338.208C470.644 338.508 470.644 338.809 470.725 339.11C470.822 340.476 470.902 341.923 470.902 343.303C470.902 351.499 468.979 358.329 465.537 363.67C464.799 364.814 463.962 365.909 463.032 366.949C462.58 367.454 462.111 367.946 461.626 368.41C461.142 368.875 460.641 369.312 460.124 369.776C458.217 371.349 456.037 372.666 453.66 373.683C453.417 373.792 453.159 373.902 452.884 373.997C452.351 374.216 451.801 374.421 451.268 374.598C450.735 374.776 449.878 375.008 449.183 375.172H449.006C448.602 375.268 448.198 375.349 447.777 375.418L447.05 375.582C446.323 375.705 445.58 375.8 444.836 375.882H444.707C443.527 376.004 442.34 376.064 441.152 376.06H440.231C439.584 376.06 438.922 376.06 438.259 375.964H437.936C437.257 375.964 436.578 375.855 435.884 375.773L428.838 379.188C432.747 380.141 436.792 380.637 440.861 380.663C441.41 380.663 441.944 380.663 442.477 380.595C443.01 380.527 443.947 380.595 444.626 380.499L445.87 380.349C446.662 380.253 447.486 380.158 448.181 380.035C448.553 380.035 448.925 379.898 449.296 379.816L449.749 379.707C450.444 379.557 451.139 379.42 451.817 379.229L452.302 379.106C467.202 374.762 476.316 361.662 476.316 343.303C476.332 318.114 459.073 288.335 435.463 269.99Z" fill="#455A64"/>
<path d="M405.616 258.502L405.842 258.42C405.974 258.379 406.099 258.324 406.214 258.256L417.235 252.874C417.944 252.492 418.518 251.955 418.896 251.321C419.275 250.686 419.443 249.977 419.384 249.268V207.236L408.379 212.618V254.65C408.458 255.456 408.233 256.263 407.736 256.954C407.24 257.646 406.498 258.188 405.616 258.502Z" fill="#37474F"/>
<path d="M392.333 252.956C394.978 252.965 397.618 253.175 400.219 253.584C400.539 253.658 400.875 253.667 401.2 253.609C401.525 253.552 401.829 253.43 402.088 253.254C402.347 253.078 402.552 252.853 402.688 252.597C402.824 252.341 402.886 252.061 402.869 251.781V247.601C398.916 247.641 395 248.241 391.282 249.377V253.011C391.638 252.997 391.977 252.956 392.333 252.956Z" fill="#37474F"/>
<path d="M393.722 257.573C395.031 257.614 396.337 257.714 397.633 257.873C398.894 258.037 400.186 258.256 401.479 258.529H401.722H401.851C402.265 258.614 402.687 258.673 403.111 258.707H403.225C403.574 258.734 403.926 258.734 404.275 258.707H404.469C404.798 258.661 405.122 258.593 405.438 258.502C406.321 258.188 407.063 257.646 407.559 256.954C408.055 256.263 408.28 255.456 408.202 254.65V212.618L402.772 209.886V251.713C402.789 251.993 402.727 252.273 402.591 252.529C402.455 252.785 402.25 253.01 401.991 253.186C401.733 253.362 401.428 253.483 401.103 253.541C400.778 253.598 400.442 253.59 400.122 253.516C397.521 253.107 394.881 252.897 392.236 252.888C391.88 252.888 391.541 252.888 391.185 252.888V257.477C391.573 257.477 391.945 257.477 392.333 257.477C392.72 257.477 393.286 257.559 393.722 257.573Z" fill="#455A64"/>
<path d="M485.398 354.764C485.398 315.286 452.609 267.34 412.161 247.547C391.961 237.684 373.684 236.755 360.449 243.203L338.326 253.994C325.107 260.469 316.914 274.306 316.914 294.032C316.914 333.509 349.702 381.455 390.135 401.249C410.335 411.098 428.612 412.04 441.847 405.593L463.954 394.774C477.205 388.34 485.398 374.489 485.398 354.764Z" fill="#E63946"/>
<path opacity="0.1" d="M441.921 405.58C470.519 391.623 470.517 346.364 441.918 304.491C413.318 262.618 366.949 239.988 338.351 253.944C309.753 267.901 309.755 313.16 338.355 355.033C366.955 396.906 413.323 419.537 441.921 405.58Z" fill="black"/>
<path d="M463.404 365.514C463.404 326.037 430.616 278.09 390.167 258.297C369.935 248.421 351.626 247.506 338.374 253.994L327.418 259.335C314.134 265.796 305.925 279.661 305.925 299.414C305.925 338.891 338.714 386.838 379.146 406.631C399.378 416.493 417.688 417.422 430.939 410.947L441.96 405.565C455.195 399.104 463.404 385.212 463.404 365.514Z" fill="#F0F0F0"/>
<path d="M379.146 263.638C419.546 283.377 452.383 331.378 452.383 370.855C452.383 410.333 419.594 426.329 379.146 406.59C338.697 386.851 305.925 338.85 305.925 299.373C305.925 259.895 338.713 243.94 379.146 263.638Z" fill="#E0E0E0"/>
<path d="M457.764 370.896C457.764 330.026 423.699 280.153 381.812 259.718C369.482 253.693 357.572 250.647 346.39 250.647C338.744 250.558 331.21 252.204 324.574 255.415C320.921 257.218 306.151 264.362 302.402 266.206C287.373 273.651 278.421 289.305 278.421 310.178C278.421 351.048 312.486 400.921 354.373 421.356C366.703 427.38 378.613 430.427 389.795 430.427C397.492 430.517 405.075 428.846 411.741 425.591C415.328 423.802 429.921 416.753 433.638 414.936C448.763 407.519 457.764 391.837 457.764 370.896Z" fill="#455A64"/>
<path d="M389.795 430.427C378.629 430.427 366.703 427.38 354.373 421.356C312.502 400.866 278.421 351.048 278.421 310.178C278.421 280.535 296.455 261.398 324.364 261.398C335.546 261.398 347.456 264.444 359.786 270.468C401.657 290.958 435.738 340.776 435.738 381.647C435.738 411.275 417.704 430.427 389.795 430.427Z" fill="#37474F"/>
<path d="M373.425 388.122C367.13 387.961 360.998 386.397 355.649 383.586C334.738 373.382 317.722 348.48 317.722 328.059C317.722 313.265 326.739 303.703 340.669 303.703C346.934 303.874 353.036 305.433 358.364 308.224C379.275 318.442 396.292 343.344 396.292 363.766C396.372 378.56 387.355 388.122 373.425 388.122Z" fill="#263238"/>
<path d="M280.02 457.61C280.02 416.739 245.955 366.867 204.068 346.418C191.738 340.407 179.828 337.361 168.662 337.361C161.016 337.268 153.481 338.915 146.846 342.128C143.194 343.931 128.407 351.076 124.674 352.92C109.629 360.364 100.677 376.019 100.677 396.878C100.677 437.748 134.742 487.635 176.629 508.07C188.959 514.094 200.869 517.14 212.035 517.14C219.744 517.218 227.334 515.528 233.997 512.25C237.6 510.461 252.193 503.412 255.894 501.595C271.019 494.232 280.02 478.551 280.02 457.61Z" fill="#455A64"/>
<path d="M212.051 517.14C200.885 517.14 188.975 514.094 176.645 508.07C134.758 487.58 100.693 437.748 100.693 396.878C100.693 367.249 118.727 348.111 146.652 348.111C157.818 348.111 169.728 351.158 182.058 357.168C223.929 377.658 258.01 427.49 258.01 468.36C257.994 497.989 239.96 517.14 212.051 517.14Z" fill="#37474F"/>
<path d="M252.581 468.36C252.581 428.883 219.792 380.936 179.344 361.143C159.111 351.267 140.802 350.338 127.632 356.827L116.675 362.181C103.408 368.642 95.1824 382.494 95.1824 402.246C95.1824 441.723 127.971 489.67 168.419 509.463C188.652 519.34 206.945 520.255 220.131 513.794L231.153 508.412C244.388 501.937 252.581 488.085 252.581 468.36Z" fill="#F0F0F0"/>
<path d="M168.339 366.511C208.739 386.25 241.576 434.251 241.576 473.729C241.576 513.206 208.787 529.202 168.339 509.518C127.89 489.834 95.1016 441.778 95.1016 402.301C95.1016 362.823 127.89 346.773 168.339 366.511Z" fill="#E0E0E0"/>
<path d="M241.576 473.729C241.576 434.251 208.787 386.305 168.339 366.511C148.139 356.649 129.862 355.72 116.627 362.168L94.5036 372.918C81.2686 379.393 73.0754 393.244 73.0754 412.955C73.0754 452.433 105.864 500.379 146.313 520.173C166.496 530.035 184.773 530.964 198.025 524.517L220.115 513.739C233.367 507.319 241.576 493.467 241.576 473.729Z" fill="#E63946"/>
<path opacity="0.1" d="M146.313 377.262C186.713 397.001 219.534 445.002 219.534 484.479C219.534 523.957 186.761 539.953 146.313 520.214C105.864 500.475 73.0754 452.474 73.0754 412.996C73.0754 373.519 105.864 357.523 146.313 377.262Z" fill="black"/>
<path d="M93.728 399.733C93.1301 399.924 92.5322 400.129 91.9504 400.361C91.3686 400.593 91.0454 400.771 90.6091 400.989C90.1728 401.208 89.5102 401.522 88.9931 401.809C88.476 402.096 88.1366 402.314 87.7165 402.588C87.2963 402.861 86.7307 403.23 86.2459 403.585L85.0824 404.5C84.6299 404.882 84.1936 405.279 83.7573 405.688C83.321 406.098 83.0462 406.385 82.7069 406.74C82.3675 407.095 81.915 407.642 81.5272 408.106C81.1394 408.571 80.9293 408.857 80.6546 409.24L80.4606 409.513C80.1536 409.95 79.8627 410.387 79.5718 410.879L79.3294 411.289C79.1032 411.658 78.877 412.027 78.6669 412.409C78.4568 412.792 78.3275 413.092 78.1659 413.434C78.0043 413.775 77.9397 413.871 77.8427 414.089L77.5518 414.718C77.3579 415.155 77.1802 415.606 77.0024 416.084C76.8246 416.562 76.7115 416.876 76.5822 417.272C76.3237 417.991 76.0974 418.729 75.9035 419.485C75.7581 420.004 75.6288 420.523 75.5157 421.056L75.3218 421.903C75.3218 422.217 75.1925 422.531 75.144 422.845C74.9986 423.624 74.9016 424.416 74.8046 425.222C74.8046 425.605 74.6915 425.973 74.6592 426.37C74.6592 426.506 74.6592 426.656 74.6592 426.807C74.5461 428.104 74.4814 429.443 74.4814 430.836C74.5282 436.398 75.3142 441.938 76.8246 447.351C82.8685 469.726 100.063 492.812 121.103 506.021C123.572 507.586 126.14 509.036 128.795 510.365L129.894 510.87L131.736 511.717L133.142 512.305L134.661 512.906C135.178 513.111 135.679 513.288 136.277 513.466C136.875 513.643 137.166 513.794 137.619 513.93L139.235 514.436L140.495 514.804L142.111 515.201L143.468 515.515L144.858 515.802C145.472 515.925 146.086 516.02 146.7 516.116L147.541 516.252L148.268 516.321L159.047 510.884C152.187 509.972 145.602 507.945 139.655 504.915C109.646 490.271 85.3248 454.687 85.3248 425.386C85.3248 413.529 89.3325 404.541 96.0874 398.995C95.7318 399.077 95.3602 399.145 95.0208 399.241L93.728 399.733Z" fill="#263238"/>
<path d="M103.424 389.843C101.749 390.339 100.127 390.956 98.5759 391.687L87.6033 397.042C92.4398 394.751 97.8802 393.525 103.424 393.476V389.843Z" fill="#37474F"/>
<path d="M147.282 516.198L146.442 516.061C145.828 515.966 145.23 515.87 144.6 515.747C143.969 515.624 143.679 515.556 143.21 515.46L142.289 515.269L141.852 515.146L140.236 514.75L138.944 514.381L137.328 513.876C136.875 513.739 136.439 513.575 135.986 513.411L134.37 512.865L132.851 512.25L131.445 511.663L129.571 510.802L128.52 510.324C125.957 509.042 123.476 507.647 121.087 506.144C114.246 501.836 108.044 496.846 102.616 491.282C97.9485 486.506 93.7645 481.406 90.1082 476.037C84.0074 467.209 79.4669 457.673 76.6307 447.734C76.6307 447.584 76.6307 447.433 76.5176 447.269C75.0702 441.863 74.3385 436.338 74.336 430.795C74.336 429.511 74.336 428.268 74.4976 427.039C74.4976 426.861 74.4976 426.67 74.4976 426.492C74.4902 426.37 74.4902 426.247 74.4976 426.124C74.5946 425.099 74.7238 424.102 74.9016 423.118L74.9986 422.49C74.9986 422.162 75.144 421.848 75.2087 421.534C75.2733 421.22 75.4187 420.632 75.5157 420.168C75.6127 419.703 75.7419 419.212 75.8874 418.802C76.0328 418.392 76.2106 417.805 76.3722 417.313L76.5661 416.767C76.5734 416.694 76.5734 416.621 76.5661 416.548C76.7277 416.138 76.8731 415.742 77.0347 415.346C77.1963 414.95 77.4549 414.403 77.665 413.98C77.8751 413.556 78.2306 412.792 78.5538 412.231C78.877 411.671 79.0224 411.439 79.2648 411.043L79.5557 410.565C79.8143 410.169 80.089 409.759 80.3637 409.377C80.6384 408.994 80.897 408.68 81.1717 408.338L81.5272 407.874L82.416 407.068L82.9008 406.549C83.0624 406.399 83.1917 406.235 83.3533 406.084C83.5149 405.934 83.9351 405.511 84.2421 405.224L84.533 404.964L85.6803 403.994C85.8581 403.858 86.0682 403.749 86.2459 403.612C86.7307 403.257 87.2155 402.929 87.7165 402.615C88.2175 402.301 88.5568 402.082 88.9931 401.836C89.4295 401.59 90.0597 401.276 90.6091 401.017C91.1586 400.757 91.4979 400.579 91.9504 400.388C92.4029 400.197 93.1301 399.951 93.728 399.76L95.1501 399.282L96.249 399.009L96.96 398.872C97.4448 398.763 97.9296 398.653 98.4306 398.571C98.9315 398.489 99.8365 398.38 100.564 398.312C101.048 398.312 101.517 398.189 102.018 398.148C102.519 398.107 102.891 398.148 103.343 398.148V393.558C97.7938 393.623 92.3531 394.868 87.5226 397.178C86.8277 397.506 86.1651 397.875 85.5187 398.244L85.1794 398.449C83.2852 399.585 81.5408 400.89 79.9759 402.342L79.4587 402.833C78.9901 403.284 78.5376 403.749 78.0851 404.199C77.9559 404.35 77.8266 404.514 77.6811 404.664C76.9539 405.511 76.2591 406.399 75.6127 407.396L74.9178 408.42C74.6269 408.871 74.3522 409.336 74.0775 409.786C73.8027 410.237 73.5603 410.729 73.3018 411.221C73.0432 411.712 72.817 412.163 72.5907 412.669C72.2352 413.434 71.912 414.212 71.605 415.018C71.4595 415.401 71.3303 415.797 71.201 416.193C70.9747 416.889 70.7485 417.559 70.5546 418.296L70.2637 419.348C70.0051 420.386 69.7789 421.452 69.6011 422.545C69.6011 422.804 69.6011 423.091 69.488 423.351C69.3426 424.266 69.2295 425.195 69.1487 426.083L69.0517 427.107C68.9709 428.323 68.9062 429.552 68.9062 430.809C69.0207 438.897 70.5342 446.928 73.3987 454.646C74.8772 458.736 76.6363 462.749 78.6669 466.667C79.6904 468.643 80.7677 470.605 81.8989 472.554C85.3881 478.389 89.4476 483.968 94.0351 489.233C103.133 499.683 114.106 508.548 125.903 514.313C130.593 516.659 135.616 518.494 140.851 519.777L147.896 516.348L147.282 516.198Z" fill="#455A64"/>
<path d="M195.875 472.923C195.875 446.218 173.688 413.72 146.313 400.361C132.577 393.668 120.166 393.053 111.197 397.479L87.3934 409.049C78.3761 413.406 72.8494 422.818 72.8494 436.205C72.8494 462.924 95.037 495.407 122.412 508.767C136.116 515.46 148.527 516.088 157.495 511.676L181.428 500.038C190.333 495.653 195.875 486.296 195.875 472.923Z" fill="#E63946"/>
<path opacity="0.3" d="M195.875 472.923C195.875 446.218 173.688 413.72 146.313 400.361C132.577 393.668 120.166 393.053 111.197 397.479L87.3934 409.049C78.3761 413.406 72.8494 422.818 72.8494 436.205C72.8494 462.924 95.037 495.407 122.412 508.767C136.116 515.46 148.527 516.088 157.495 511.676L181.428 500.038C190.333 495.653 195.875 486.296 195.875 472.923Z" fill="black"/>
<path d="M157.126 511.788C176.461 502.305 176.499 471.611 157.212 443.231C137.924 414.85 106.614 399.532 87.2791 409.015C67.944 418.498 67.9055 449.193 87.1931 477.573C106.481 505.953 137.791 521.272 157.126 511.788Z" fill="#E63946"/>
<path d="M148.102 503.25C163.189 495.921 163.243 472.07 148.222 449.977C133.201 427.885 108.794 415.916 93.7076 423.246C78.6209 430.575 78.5673 454.426 93.5879 476.519C108.609 498.611 133.015 510.579 148.102 503.25Z" fill="#263238"/>
<path d="M141.465 443.035L118.711 462.241L91.5464 422.449C98.479 419.034 108.11 419.526 118.711 424.703C127.738 429.391 135.492 435.638 141.465 443.035Z" fill="#455A64"/>
<path d="M157.188 481.037C157.188 491.391 152.874 498.686 145.876 502.046L118.711 462.241L141.465 443.035C150.983 454.523 157.188 468.538 157.188 481.037Z" fill="#37474F"/>
<path d="M145.909 502.046C138.976 505.42 129.28 504.983 118.711 499.806C109.669 495.133 101.921 488.872 95.9905 481.447L118.711 462.241L145.909 502.046Z" fill="#455A64"/>
<path d="M118.711 462.241L95.9903 481.447C86.4397 469.972 80.2666 455.916 80.2666 443.499C80.2666 433.118 84.5813 425.851 91.5786 422.449L118.711 462.241Z" fill="#37474F"/>
<path d="M150.062 516.471H150.288C151.128 516.471 151.904 516.553 152.777 516.553H153.181C154.393 516.553 155.572 516.485 156.736 516.375H156.865C157.855 516.274 158.837 516.123 159.806 515.925C160.21 515.843 160.63 515.774 161.034 515.679C161.794 515.501 162.553 515.282 163.281 515.05C164.008 514.818 164.412 514.668 164.897 514.463L165.672 514.135C168.052 513.128 170.233 511.815 172.136 510.242C167.833 511.24 163.329 511.463 158.917 510.898L147.88 516.266C148.672 516.348 149.383 516.43 150.062 516.471Z" fill="#263238"/>
<path d="M142.45 400.989C142.734 404.57 144.563 407.938 147.589 410.456C171.183 428.787 188.458 458.58 188.458 483.796C188.458 502.169 179.344 515.214 164.444 519.599C166.349 519.083 168.176 518.381 169.89 517.509L180.863 512.154C192.53 506.472 199.479 494.396 199.479 478.428C199.479 453.211 182.204 423.419 158.594 405.087C155.594 402.56 153.79 399.194 153.52 395.621V358.452L142.515 363.834L137.085 361.184L142.515 363.834L142.45 400.989Z" fill="#37474F"/>
<path d="M147.589 410.456C144.563 407.938 142.734 404.57 142.45 400.989V363.834L137.021 361.184V403.216C137.035 403.772 137.11 404.325 137.247 404.869L137.344 405.292C137.498 405.876 137.698 406.451 137.942 407.013C138.332 407.881 138.814 408.718 139.38 409.513C139.525 409.718 139.671 409.896 139.832 410.087C140.252 410.649 140.722 411.183 141.238 411.685C141.568 411.994 141.919 412.285 142.289 412.559C143.598 413.515 144.874 414.526 146.135 415.565L147.137 416.398C148.236 417.327 149.318 418.269 150.369 419.239L150.853 419.676C152.049 420.783 153.213 421.916 154.36 423.078C154.667 423.378 154.958 423.692 155.249 423.993C156.202 424.976 157.14 425.973 158.045 426.998C158.271 427.244 158.497 427.476 158.707 427.722C159.79 428.951 160.824 430.194 161.939 431.465L162.65 432.38C163.491 433.432 164.266 434.497 165.09 435.576L165.769 436.519C166.723 437.885 167.628 439.169 168.516 440.508L169.017 441.327C169.744 442.461 170.456 443.608 171.134 444.77L171.764 445.835C172.556 447.201 173.38 448.567 174.027 450.029C174.124 450.206 174.221 450.398 174.302 450.575C174.937 451.832 175.535 453.089 176.095 454.345C176.273 454.728 176.451 455.11 176.612 455.493C177.227 456.927 177.841 458.361 178.374 459.809C178.907 461.257 179.392 462.705 179.861 464.153C179.958 464.454 180.055 464.768 180.135 465.082C180.577 466.484 180.965 467.891 181.299 469.303L181.444 470.013C181.751 471.297 181.994 472.581 182.22 473.865C182.22 474.098 182.22 474.33 182.333 474.562C182.559 475.928 182.721 477.294 182.85 478.66C182.85 478.961 182.85 479.261 182.85 479.562C182.947 480.928 183.028 482.362 183.028 483.742C183.028 491.938 181.105 498.836 177.663 504.122C176.925 505.266 176.087 506.362 175.158 507.401C174.706 507.906 174.237 508.398 173.752 508.862C173.267 509.327 172.766 509.764 172.249 510.228C170.346 511.801 168.165 513.114 165.785 514.121L165.01 514.449C164.46 514.654 163.911 514.859 163.394 515.037C162.876 515.214 162.02 515.46 161.325 515.624H161.147C160.743 515.72 160.323 515.788 159.919 515.87L159.192 516.02C158.465 516.143 157.721 516.252 156.978 516.321H156.752C155.572 516.435 154.385 516.495 153.197 516.498H152.276C151.629 516.498 150.967 516.498 150.304 516.403H150.062C149.383 516.403 148.688 516.28 148.009 516.198L140.964 519.626C144.873 520.58 148.918 521.077 152.987 521.102C153.536 521.102 154.069 521.102 154.603 521.102C155.136 521.102 156.073 521.102 156.752 521.006L157.996 520.856C158.788 520.76 159.612 520.665 160.291 520.542L161.422 520.323L161.875 520.214C162.569 520.063 163.264 519.913 163.943 519.736L164.428 519.599C179.327 515.269 188.442 502.169 188.442 483.796C188.458 458.58 171.183 428.787 147.589 410.456Z" fill="#455A64"/>
<path d="M117.645 398.968L117.968 398.872L118.34 398.708L129.28 393.408C129.989 393.026 130.563 392.489 130.941 391.855C131.32 391.22 131.488 390.511 131.429 389.802V347.702L120.424 353.084V395.102C120.505 395.912 120.279 396.723 119.78 397.418C119.28 398.112 118.533 398.655 117.645 398.968Z" fill="#37474F"/>
<path d="M104.458 393.408C107.104 393.41 109.744 393.621 112.344 394.036C112.664 394.107 113 394.113 113.323 394.055C113.646 393.996 113.949 393.874 114.207 393.699C114.464 393.524 114.67 393.3 114.807 393.045C114.944 392.791 115.008 392.513 114.995 392.233V388.053C111.04 388.078 107.121 388.679 103.408 389.829V393.463C103.763 393.408 104.103 393.408 104.458 393.408Z" fill="#37474F"/>
<path d="M105.848 398.025C107.125 398.025 108.434 398.175 109.759 398.339C111.053 398.501 112.337 398.72 113.605 398.995C113.68 398.987 113.756 398.987 113.831 398.995H113.977C114.395 399.086 114.822 399.146 115.253 399.173H115.366C115.716 399.193 116.067 399.193 116.417 399.173H116.611C116.941 399.133 117.266 399.065 117.58 398.968C118.468 398.655 119.216 398.112 119.715 397.418C120.215 396.723 120.44 395.912 120.36 395.102V353.084L114.93 350.352V392.192C114.943 392.472 114.879 392.75 114.742 393.004C114.605 393.259 114.4 393.483 114.142 393.658C113.884 393.833 113.582 393.955 113.258 394.014C112.935 394.072 112.6 394.066 112.28 393.995C109.68 393.58 107.04 393.369 104.394 393.367C104.038 393.367 103.699 393.367 103.343 393.367V397.957H104.491C105.04 398.039 105.412 398.011 105.848 398.025Z" fill="#455A64"/>
<path d="M123.866 327.43C121.863 326.46 119.115 326.597 116.077 328.086C112.858 329.847 110.179 332.229 108.26 335.036C106.341 337.843 105.238 340.995 105.04 344.232C105.04 347.223 106.284 349.327 108.272 350.283L152.292 371.757L167.805 348.931L123.866 327.43Z" fill="#E63946"/>
<path opacity="0.3" d="M123.866 327.43C121.863 326.46 119.115 326.597 116.077 328.086C112.858 329.847 110.179 332.229 108.26 335.036C106.341 337.843 105.238 340.995 105.04 344.232C105.04 347.223 106.284 349.327 108.272 350.283L152.292 371.757L167.805 348.931L123.866 327.43Z" fill="black"/>
<path opacity="0.3" d="M106.381 338.563C105.546 340.372 105.092 342.291 105.04 344.232C105.04 347.224 106.284 349.327 108.272 350.283L152.292 371.757L157.77 363.697L106.381 338.563Z" fill="black"/>
<path d="M149.108 365.706C149.309 362.474 150.413 359.329 152.328 356.527C154.244 353.725 156.917 351.347 160.13 349.587C163.135 348.111 165.866 347.961 167.854 348.904C169.842 349.846 171.086 351.964 171.086 354.955C170.879 358.186 169.775 361.33 167.863 364.133C165.951 366.935 163.285 369.318 160.081 371.088C157.027 372.563 154.28 372.713 152.292 371.73C150.304 370.746 149.108 368.683 149.108 365.706Z" fill="#E63946"/>
<path opacity="0.2" d="M149.108 365.706C149.309 362.474 150.413 359.329 152.328 356.527C154.244 353.725 156.917 351.347 160.13 349.587C163.135 348.111 165.866 347.961 167.854 348.904C169.842 349.846 171.086 351.964 171.086 354.955C170.879 358.186 169.775 361.33 167.863 364.133C165.951 366.935 163.285 369.318 160.081 371.088C157.027 372.563 154.28 372.713 152.292 371.73C150.304 370.746 149.108 368.683 149.108 365.706Z" fill="black"/>
<path d="M153.875 363.356C153.993 361.522 154.621 359.738 155.708 358.148C156.794 356.558 158.309 355.206 160.129 354.204C160.727 353.756 161.476 353.478 162.271 353.41C163.066 353.343 163.866 353.489 164.556 353.828C165.247 354.167 165.794 354.681 166.119 355.298C166.444 355.915 166.531 356.603 166.367 357.264C166.249 359.094 165.622 360.875 164.539 362.462C163.455 364.05 161.944 365.4 160.129 366.402C159.531 366.845 158.783 367.119 157.991 367.184C157.199 367.25 156.403 367.105 155.714 366.769C155.025 366.434 154.477 365.924 154.147 365.312C153.817 364.7 153.722 364.016 153.875 363.356Z" fill="#37474F"/>
<path d="M163.442 355.898C163.473 355.074 163.245 354.259 162.78 353.534C161.842 353.58 160.932 353.82 160.13 354.231C158.309 355.234 156.794 356.585 155.708 358.175C154.621 359.765 153.993 361.55 153.876 363.383C153.853 364.206 154.081 365.02 154.538 365.746C155.481 365.701 156.396 365.462 157.205 365.05C159.022 364.046 160.534 362.694 161.617 361.104C162.701 359.514 163.326 357.73 163.442 355.898Z" fill="#263238"/>
<path d="M410.205 187.688C408.218 186.719 405.454 186.855 402.416 188.344C399.209 190.109 396.54 192.489 394.625 195.289C392.71 198.09 391.604 201.233 391.395 204.463C391.395 207.454 392.656 209.544 394.627 210.514L438.631 231.988L454.161 209.162L410.205 187.688Z" fill="#E63946"/>
<path opacity="0.3" d="M410.205 187.688C408.218 186.719 405.454 186.855 402.416 188.344C399.209 190.109 396.54 192.489 394.625 195.289C392.71 198.09 391.604 201.233 391.395 204.463C391.395 207.454 392.656 209.544 394.627 210.514L438.631 231.988L454.161 209.162L410.205 187.688Z" fill="black"/>
<path opacity="0.3" d="M392.688 198.808C391.87 200.615 391.421 202.528 391.363 204.463C391.363 207.454 392.623 209.544 394.595 210.514L438.599 231.988L444.093 223.915L392.688 198.808Z" fill="black"/>
<path d="M435.463 225.964C435.67 222.733 436.774 219.589 438.686 216.786C440.598 213.983 443.264 211.601 446.468 209.831C449.49 208.37 452.221 208.219 454.209 209.162C456.197 210.104 457.441 212.222 457.441 215.213C457.24 218.445 456.137 221.59 454.221 224.392C452.305 227.194 449.632 229.572 446.42 231.332C443.382 232.821 440.635 232.958 438.631 231.988C436.627 231.018 435.463 228.928 435.463 225.964Z" fill="#E63946"/>
<path opacity="0.2" d="M435.463 225.964C435.67 222.733 436.774 219.589 438.686 216.786C440.598 213.983 443.264 211.601 446.468 209.831C449.49 208.37 452.221 208.219 454.209 209.162C456.197 210.104 457.441 212.222 457.441 215.213C457.24 218.445 456.137 221.59 454.221 224.392C452.305 227.194 449.632 229.572 446.42 231.332C443.382 232.821 440.635 232.958 438.631 231.988C436.627 231.018 435.463 228.928 435.463 225.964Z" fill="black"/>
<path d="M440.231 223.642C440.347 221.809 440.972 220.025 442.056 218.435C443.139 216.845 444.651 215.493 446.468 214.489C447.098 214.107 447.835 213.871 448.606 213.804C449.377 213.736 450.155 213.841 450.864 214.107C451.51 214.484 452.024 215.002 452.351 215.605C452.678 216.209 452.806 216.876 452.722 217.535C452.607 219.37 451.98 221.155 450.894 222.745C449.807 224.336 448.29 225.687 446.468 226.688C445.872 227.134 445.124 227.41 444.332 227.478C443.539 227.545 442.742 227.4 442.052 227.064C441.362 226.727 440.815 226.215 440.488 225.601C440.161 224.987 440.071 224.301 440.231 223.642Z" fill="#37474F"/>
<path d="M449.797 216.156C449.82 215.333 449.592 214.519 449.135 213.793C448.192 213.838 447.277 214.077 446.469 214.489C444.649 215.493 443.135 216.844 442.048 218.434C440.962 220.024 440.334 221.808 440.215 223.641C440.189 224.466 440.423 225.282 440.893 226.005C441.831 225.959 442.741 225.72 443.544 225.308C445.363 224.305 446.877 222.953 447.964 221.363C449.05 219.773 449.678 217.989 449.797 216.156Z" fill="#263238"/>
<path d="M444.093 110.1L396.583 86.8776C393.541 81.9783 389.889 77.367 385.691 73.122C411.191 76.8785 431.359 89.9375 444.093 110.1Z" fill="#E63946"/>
<path opacity="0.2" d="M444.093 110.1L396.583 86.8776C393.541 81.9783 389.889 77.367 385.691 73.122C411.191 76.8785 431.359 89.9375 444.093 110.1Z" fill="black"/>
<path d="M435.302 210.063C437.719 199.203 438.968 188.18 439.035 177.129C439.035 102.423 376.997 72.1385 300.463 109.499C223.929 146.859 161.875 237.684 161.875 312.391C161.8 322.251 163.058 332.086 165.624 341.705L147.751 350.434C145.526 340.694 144.443 330.793 144.519 320.873C144.519 236.796 214.362 134.537 300.511 92.5055C386.66 50.4737 456.488 84.5417 456.488 168.633C456.46 179.617 455.379 190.58 453.256 201.417L435.48 210.118" fill="#37474F"/>
<path d="M435.318 210.063C437.723 199.197 438.967 188.17 439.035 177.116C439.035 127.844 412.048 97.8876 371.696 93.9398C384.317 108.174 391.557 128.486 391.557 154.044C391.48 165.066 390.236 176.061 387.84 186.896L435.318 210.063Z" fill="#263238"/>
<path d="M407.927 81.96C379.938 69.666 342.107 72.2068 300.463 92.5328C214.298 134.537 144.47 236.782 144.47 320.887C144.394 330.797 145.477 340.69 147.702 350.42L100.305 327.28C98.0317 317.568 96.9111 307.688 96.96 297.788C96.96 213.697 166.787 111.452 252.953 69.4065C295.987 48.3974 334.932 46.4167 363.164 60.1723C370.403 63.642 397.051 76.6599 407.927 81.96Z" fill="#455A64"/>
<path d="M123.495 315.833C122.173 315.793 120.887 315.464 119.762 314.877C117.449 313.601 115.523 311.885 114.137 309.866C112.75 307.847 111.943 305.582 111.779 303.252C111.779 300.138 113.685 298.129 116.627 298.129C117.947 298.164 119.233 298.489 120.36 299.072C122.677 300.36 124.606 302.088 125.992 304.118C127.378 306.148 128.183 308.425 128.343 310.765C128.326 313.811 126.42 315.833 123.495 315.833Z" fill="#263238"/>
<path d="M414.973 73.8869C401.175 67.6306 385.721 64.4436 370.064 64.6255C346.26 64.6255 320.873 71.1276 294.581 83.9407C233.738 113.624 180.653 172.457 153.019 234.488L105.541 211.266C133.175 149.236 186.341 90.4019 247.103 60.7187C273.395 47.9056 298.815 41.3762 322.586 41.3762C338.839 41.1883 354.859 44.6481 369.014 51.4026C376.528 55.1454 404.921 68.9693 414.973 73.8869Z" fill="#E63946"/>
<path opacity="0.6" d="M414.973 73.8869C401.175 67.6306 385.721 64.4436 370.064 64.6255C346.26 64.6255 320.873 71.1276 294.581 83.9407C233.738 113.624 180.653 172.457 153.019 234.488L105.541 211.266C133.175 149.236 186.341 90.4019 247.103 60.7187C273.395 47.9056 298.815 41.3762 322.586 41.3762C338.839 41.1883 354.859 44.6481 369.014 51.4026C376.528 55.1454 404.921 68.9693 414.973 73.8869Z" fill="white"/>
<path d="M444.077 110.086C428.854 86.058 403.014 72.0292 370.064 72.0292C347.812 72.0292 323.879 78.1899 298.96 90.3609C239.33 119.457 187.343 177.348 160.614 238.203L153.019 234.488C180.653 172.458 233.738 113.624 294.581 83.9407C320.873 71.1276 346.293 64.6255 370.064 64.6255C404.743 64.6255 432.296 78.4767 449.248 102.532L444.077 110.086Z" fill="#E63946"/>
<path d="M648.097 87.8611L640.179 109.922C639.529 109.51 638.802 109.191 638.029 108.979C636.677 108.633 635.234 108.634 633.882 108.981C632.531 109.329 631.331 110.007 630.435 110.931C629.54 111.854 628.988 112.982 628.851 114.17C628.713 115.359 628.996 116.555 629.663 117.608C630.329 118.661 631.351 119.523 632.597 120.085C633.844 120.647 635.259 120.884 636.665 120.766C638.071 120.648 639.404 120.181 640.495 119.422C641.587 118.664 642.387 117.649 642.796 116.506L649.907 96.7401L675.327 97.5324L668.329 117.134C667.684 116.717 666.956 116.398 666.18 116.192C664.828 115.846 663.385 115.847 662.033 116.194C660.681 116.541 659.482 117.22 658.586 118.143C657.691 119.067 657.139 120.194 657.002 121.383C656.864 122.571 657.147 123.768 657.813 124.82C658.48 125.873 659.501 126.735 660.748 127.297C661.994 127.86 663.41 128.097 664.816 127.979C666.222 127.861 667.555 127.393 668.646 126.635C669.737 125.877 670.538 124.862 670.947 123.719L682.631 90.9346L648.097 87.8611Z" fill="#E63946"/>
<path d="M628.996 425.878L621.077 447.939C620.431 447.521 619.704 447.202 618.928 446.996C617.576 446.65 616.133 446.651 614.781 446.998C613.429 447.346 612.23 448.024 611.334 448.947C610.439 449.871 609.887 450.998 609.75 452.187C609.612 453.375 609.894 454.572 610.561 455.625C611.228 456.677 612.249 457.539 613.496 458.102C614.742 458.664 616.158 458.901 617.564 458.783C618.97 458.665 620.303 458.197 621.394 457.439C622.485 456.681 623.286 455.666 623.695 454.523L630.806 434.757L656.225 435.549L649.228 455.151C648.582 454.733 647.855 454.414 647.079 454.209C645.727 453.863 644.283 453.863 642.932 454.211C641.58 454.558 640.38 455.236 639.485 456.16C638.589 457.084 638.038 458.211 637.9 459.399C637.763 460.588 638.045 461.784 638.712 462.837C639.379 463.89 640.4 464.752 641.646 465.314C642.893 465.876 644.309 466.113 645.714 465.996C647.12 465.878 648.453 465.41 649.545 464.652C650.636 463.893 651.437 462.878 651.846 461.735L663.513 428.951L628.996 425.878Z" fill="#E63946"/>
<path d="M578.722 166.092C580.32 165.431 582.066 165.063 583.845 165.013C586.224 164.973 588.599 165.203 590.907 165.696C593.966 166.407 597.099 166.864 600.263 167.062C601.85 167.153 603.442 166.973 604.945 166.532C606.447 166.09 607.828 165.397 609.006 164.494C607.154 164.64 605.286 164.43 603.544 163.879C599.358 162.513 595.997 158.893 592.232 156.871C586.624 153.88 581.081 154.139 574.262 155.587C574.262 160.491 574.149 165.423 574.084 170.34L573.939 181.91C573.939 182.279 573.729 187.169 573.729 187.169C572.146 186.499 570.407 186.135 568.638 186.104C566.701 186.088 564.801 186.558 563.18 187.454C561.559 188.351 560.288 189.634 559.53 191.141C558.772 192.648 558.559 194.312 558.919 195.921C559.28 197.53 560.197 199.013 561.554 200.181C562.912 201.35 564.649 202.152 566.546 202.486C568.443 202.819 570.414 202.67 572.21 202.056C574.007 201.443 575.548 200.393 576.638 199.039C577.728 197.685 578.318 196.088 578.334 194.45L578.722 166.092Z" fill="#E63946"/>
<path d="M736.896 373.082C738.651 372.818 740.453 372.874 742.18 373.246C744.475 373.77 746.68 374.541 748.741 375.541C751.452 376.939 754.314 378.115 757.29 379.051C758.786 379.508 760.376 379.704 761.965 379.629C763.553 379.554 765.107 379.209 766.534 378.614C764.703 378.325 762.974 377.69 761.475 376.757C757.904 374.503 755.868 370.2 752.911 367.372C748.515 363.178 743.118 362.113 736.072 361.908C734.456 366.634 732.743 371.333 731.079 376.046L727.152 387.138L725.212 392.124C723.913 391.112 722.361 390.361 720.671 389.925C718.818 389.449 716.838 389.448 714.984 389.923C713.13 390.399 711.484 391.328 710.255 392.594C709.026 393.86 708.269 395.406 708.079 397.036C707.89 398.666 708.277 400.307 709.191 401.751C710.105 403.195 711.505 404.377 713.215 405.148C714.924 405.92 716.866 406.245 718.794 406.083C720.722 405.921 722.55 405.279 724.046 404.239C725.542 403.198 726.64 401.806 727.2 400.238L736.896 373.082Z" fill="#E63946"/>
<path d="M505.404 78.463C506.164 76.9632 507.293 75.6174 508.717 74.5153C510.637 73.0607 512.778 71.8295 515.084 70.8544C518.199 69.5998 521.165 68.0949 523.94 66.3603C525.32 65.4876 526.476 64.3878 527.34 63.1271C528.204 61.8665 528.757 60.471 528.965 59.0248C527.562 60.2442 525.849 61.1784 523.956 61.7568C519.415 63.1228 513.581 62.153 508.798 62.7404C501.671 63.6283 497.308 67.1389 492.928 72.4253C497.049 76.5233 501.008 80.6213 505.129 84.7193L514.712 94.2813C515.019 94.5818 518.93 98.7345 518.93 98.7345C517.076 99.147 515.354 99.9029 513.888 100.947C512.281 102.094 511.112 103.618 510.53 105.327C509.948 107.035 509.978 108.851 510.617 110.545C511.255 112.239 512.474 113.735 514.119 114.843C515.764 115.952 517.76 116.623 519.856 116.772C521.952 116.921 524.053 116.541 525.894 115.681C527.734 114.82 529.232 113.518 530.196 111.938C531.161 110.358 531.55 108.572 531.313 106.805C531.077 105.038 530.226 103.371 528.868 102.013L505.404 78.463Z" fill="#E63946"/>
<path d="M648.016 209.655L605.66 230.336C605.262 230.553 604.929 230.847 604.69 231.194C604.452 231.541 604.313 231.93 604.287 232.33V273.638C604.311 274.038 604.448 274.426 604.687 274.771C604.926 275.116 605.26 275.407 605.66 275.619L610.508 277.982C610.93 278.161 611.394 278.254 611.866 278.254C612.337 278.254 612.802 278.161 613.223 277.982L655.595 257.287C655.989 257.071 656.318 256.779 656.554 256.434C656.79 256.09 656.926 255.704 656.952 255.307V213.93C656.928 213.531 656.791 213.143 656.552 212.798C656.313 212.453 655.979 212.162 655.579 211.95L650.731 209.641C650.307 209.467 649.842 209.378 649.371 209.381C648.901 209.383 648.437 209.477 648.016 209.655Z" fill="#E63946"/>
<path d="M611.947 277.298V235.936C611.973 235.537 612.109 235.148 612.345 234.802C612.581 234.455 612.909 234.161 613.304 233.941L655.676 213.26C656.419 212.891 657.033 213.192 657.033 213.929V255.305C657.007 255.703 656.871 256.089 656.635 256.433C656.399 256.777 656.07 257.07 655.676 257.286L613.304 277.981C612.561 278.336 611.947 278.049 611.947 277.298Z" fill="#E63946"/>
<path d="M611.947 277.298V235.936C611.973 235.537 612.109 235.148 612.345 234.802C612.581 234.455 612.909 234.161 613.304 233.941L655.676 213.26C656.419 212.891 657.033 213.192 657.033 213.929V255.305C657.007 255.703 656.871 256.089 656.635 256.433C656.399 256.777 656.07 257.07 655.676 257.286L613.304 277.981C612.561 278.336 611.947 278.049 611.947 277.298Z" fill="#E63946"/>
<path opacity="0.2" d="M613.302 277.981C612.874 278.149 612.408 278.237 611.936 278.237C611.464 278.237 610.998 278.149 610.571 277.981L605.723 275.604C605.322 275.392 604.988 275.101 604.749 274.756C604.51 274.411 604.373 274.023 604.349 273.623V232.329C604.372 231.912 604.522 231.508 604.785 231.155L612.364 234.802C612.111 235.142 611.972 235.534 611.96 235.936V277.298C611.944 277.981 612.461 278.363 613.302 277.981Z" fill="black"/>
<path opacity="0.4" d="M657.017 213.724C656.904 213.137 656.354 212.932 655.676 213.26L613.304 233.941C612.908 234.158 612.581 234.453 612.351 234.802L604.772 231.155C604.993 230.816 605.316 230.533 605.709 230.335L648.016 209.654C648.439 209.471 648.907 209.376 649.381 209.376C649.856 209.376 650.324 209.471 650.747 209.654L655.595 211.962C655.971 212.149 656.294 212.404 656.539 212.709C656.785 213.013 656.948 213.36 657.017 213.724Z" fill="white"/>
<path d="M651.086 237.397C651.086 247.806 643.604 259.909 634.36 264.417C625.117 268.924 617.619 264.143 617.619 253.721C617.619 243.298 625.117 231.209 634.36 226.701C643.604 222.194 651.086 226.975 651.086 237.397Z" fill="#FAFAFA"/>
<path d="M632.098 240.758V252.819C632.078 253.119 631.975 253.411 631.799 253.672C631.622 253.933 631.376 254.155 631.08 254.322L628.333 255.688C627.767 255.961 627.315 255.688 627.315 255.182V243.148C627.335 242.848 627.438 242.556 627.615 242.295C627.791 242.035 628.037 241.812 628.333 241.645L631.08 240.279C631.63 239.993 632.098 240.211 632.098 240.758Z" fill="#455A64"/>
<path d="M641.681 236.086V248.134C641.661 248.434 641.558 248.726 641.381 248.987C641.205 249.247 640.959 249.47 640.663 249.637L637.916 251.003C637.35 251.276 636.882 251.003 636.882 250.497V238.449C636.904 238.15 637.009 237.859 637.189 237.6C637.368 237.342 637.617 237.122 637.916 236.96L640.663 235.594C641.229 235.307 641.681 235.526 641.681 236.086Z" fill="#455A64"/>
<path d="M697.255 190.776L663.319 207.318C663.004 207.494 662.742 207.731 662.554 208.008C662.366 208.286 662.257 208.597 662.237 208.916V241.96C662.255 242.279 662.364 242.59 662.556 242.866C662.747 243.142 663.015 243.375 663.335 243.544L667.23 245.443C667.568 245.588 667.942 245.664 668.321 245.664C668.7 245.664 669.074 245.588 669.412 245.443L703.348 228.901C703.666 228.726 703.932 228.49 704.122 228.212C704.313 227.935 704.424 227.623 704.447 227.302V194.191C704.422 193.872 704.31 193.563 704.119 193.288C703.928 193.013 703.664 192.78 703.348 192.606L699.453 190.762C699.112 190.617 698.734 190.542 698.352 190.544C697.97 190.547 697.594 190.626 697.255 190.776Z" fill="#E63946"/>
<path d="M668.361 244.896V211.798C668.38 211.481 668.488 211.171 668.677 210.896C668.865 210.62 669.128 210.386 669.444 210.214L703.38 193.658C703.978 193.371 704.479 193.658 704.479 194.191V227.289C704.456 227.609 704.345 227.921 704.155 228.199C703.964 228.476 703.698 228.712 703.38 228.887L669.444 245.429C668.846 245.73 668.361 245.484 668.361 244.896Z" fill="#E63946"/>
<path d="M668.361 244.896V211.798C668.38 211.481 668.488 211.171 668.677 210.896C668.865 210.62 669.128 210.386 669.444 210.214L703.38 193.658C703.978 193.371 704.479 193.658 704.479 194.191V227.289C704.456 227.609 704.345 227.921 704.155 228.199C703.964 228.476 703.698 228.712 703.38 228.887L669.444 245.429C668.846 245.73 668.361 245.484 668.361 244.896Z" fill="#E63946"/>
<path opacity="0.2" d="M669.439 245.429C669.1 245.57 668.727 245.644 668.348 245.644C667.97 245.644 667.597 245.57 667.258 245.429L663.363 243.53C663.042 243.361 662.775 243.128 662.583 242.852C662.392 242.576 662.282 242.265 662.264 241.946V208.916C662.277 208.582 662.394 208.257 662.604 207.974L668.68 210.897C668.478 211.167 668.366 211.479 668.357 211.798V244.896C668.357 245.443 668.793 245.743 669.439 245.429Z" fill="black"/>
<path opacity="0.4" d="M704.413 193.973C704.316 193.508 703.879 193.344 703.33 193.604L669.394 210.16C669.075 210.328 668.813 210.563 668.634 210.843L662.558 207.974C662.738 207.702 663 207.476 663.318 207.318L697.254 190.776C697.592 190.631 697.965 190.555 698.344 190.555C698.724 190.555 699.097 190.631 699.435 190.776L703.33 192.62C703.61 192.771 703.85 192.969 704.036 193.202C704.222 193.434 704.351 193.697 704.413 193.973Z" fill="white"/>
<path d="M696.027 208.793V220.841C696.01 221.142 695.908 221.434 695.731 221.695C695.554 221.957 695.307 222.179 695.009 222.344L692.262 223.71C691.696 223.983 691.228 223.71 691.228 223.218V211.156C691.25 210.857 691.355 210.566 691.535 210.308C691.714 210.049 691.963 209.83 692.262 209.667L695.009 208.301C695.575 208.014 696.027 208.233 696.027 208.793Z" fill="#455A64"/>
<path d="M676.748 218.328V230.13C676.748 231.018 677.298 231.182 677.993 230.526L690.921 217.932C691.616 217.262 691.325 216.73 690.274 216.73H678.72C678.465 216.72 678.21 216.755 677.971 216.831C677.733 216.907 677.515 217.023 677.33 217.173C677.146 217.322 677 217.501 676.9 217.7C676.8 217.898 676.748 218.112 676.748 218.328Z" fill="#455A64"/>
<path d="M589.678 243.285L555.742 259.827C555.423 260.001 555.157 260.237 554.966 260.514C554.775 260.792 554.664 261.104 554.643 261.425V294.469C554.665 294.787 554.777 295.097 554.968 295.372C555.159 295.648 555.424 295.881 555.742 296.053L559.637 297.952C559.975 298.097 560.348 298.173 560.728 298.173C561.107 298.173 561.48 298.097 561.818 297.952L595.754 281.41C596.071 281.234 596.334 280.998 596.522 280.72C596.71 280.442 596.818 280.131 596.837 279.811V246.7C596.819 246.38 596.709 246.069 596.518 245.793C596.327 245.517 596.059 245.285 595.738 245.115L591.844 243.271C591.507 243.13 591.135 243.058 590.759 243.06C590.383 243.063 590.013 243.14 589.678 243.285Z" fill="#E63946"/>
<path d="M560.752 297.405V264.307C560.771 263.99 560.879 263.68 561.067 263.405C561.255 263.129 561.518 262.895 561.834 262.723L595.77 246.167C596.368 245.88 596.853 246.167 596.853 246.7V279.798C596.834 280.117 596.726 280.429 596.538 280.706C596.35 280.984 596.087 281.22 595.77 281.396L561.834 297.938C561.269 298.239 560.752 297.993 560.752 297.405Z" fill="#E63946"/>
<path d="M560.752 297.405V264.307C560.771 263.99 560.879 263.68 561.067 263.405C561.255 263.129 561.518 262.895 561.834 262.723L595.77 246.167C596.368 245.88 596.853 246.167 596.853 246.7V279.798C596.834 280.117 596.726 280.429 596.538 280.706C596.35 280.984 596.087 281.22 595.77 281.396L561.834 297.938C561.269 298.239 560.752 297.993 560.752 297.405Z" fill="#E63946"/>
<path opacity="0.2" d="M561.862 297.938C561.523 298.079 561.15 298.153 560.771 298.153C560.393 298.153 560.02 298.079 559.68 297.938L555.786 296.04C555.468 295.867 555.202 295.634 555.011 295.359C554.82 295.083 554.709 294.774 554.687 294.455V261.425C554.706 261.09 554.828 260.765 555.043 260.482L561.103 263.406C560.901 263.676 560.789 263.988 560.779 264.307V297.406C560.747 297.952 561.232 298.252 561.862 297.938Z" fill="black"/>
<path opacity="0.4" d="M596.835 246.536C596.755 246.072 596.302 245.908 595.753 246.167L561.817 262.723C561.501 262.895 561.24 263.13 561.057 263.406L554.981 260.483C555.169 260.217 555.43 259.992 555.74 259.827L589.677 243.285C590.014 243.14 590.388 243.064 590.767 243.064C591.146 243.064 591.52 243.14 591.858 243.285L595.753 245.129C596.04 245.287 596.284 245.493 596.471 245.735C596.658 245.978 596.782 246.251 596.835 246.536Z" fill="white"/>
<path d="M573.437 268.924V280.972C573.421 281.273 573.32 281.566 573.143 281.828C572.966 282.089 572.718 282.311 572.419 282.475L569.672 283.841C569.107 284.128 568.654 283.841 568.654 283.349V271.301C568.671 271 568.772 270.707 568.949 270.446C569.126 270.185 569.374 269.963 569.672 269.799L572.419 268.433C572.985 268.146 573.437 268.378 573.437 268.924Z" fill="#455A64"/>
<path d="M588.983 273.323V261.029C588.983 260.086 588.385 259.895 587.642 260.605L573.874 273.76C573.13 274.47 573.437 275.044 574.553 275.044H586.963C587.499 275.037 588.011 274.853 588.388 274.531C588.765 274.21 588.979 273.776 588.983 273.323Z" fill="#455A64"/>
<path d="M701.99 252.34L553.835 324.642C553.44 324.861 553.11 325.156 552.874 325.502C552.639 325.849 552.503 326.238 552.478 326.637V406.48C552.505 406.875 552.642 407.259 552.878 407.601C553.114 407.942 553.442 408.232 553.835 408.447L558.683 410.823C559.108 411.002 559.575 411.094 560.049 411.094C560.523 411.094 560.99 411.002 561.415 410.823L709.569 338.507C709.964 338.288 710.293 337.993 710.529 337.647C710.765 337.3 710.901 336.912 710.927 336.513V256.616C710.903 256.216 710.766 255.828 710.527 255.483C710.288 255.138 709.954 254.847 709.553 254.635L704.705 252.326C704.283 252.148 703.817 252.057 703.346 252.059C702.874 252.062 702.41 252.158 701.99 252.34Z" fill="#455A64"/>
<path d="M710.943 256.398C710.83 255.824 710.28 255.62 709.601 255.947L561.447 328.263C561.042 328.476 560.708 328.772 560.477 329.124L552.898 325.463C553.124 325.127 553.446 324.845 553.835 324.644L701.99 252.328C702.414 252.149 702.882 252.057 703.356 252.057C703.829 252.057 704.297 252.149 704.721 252.328L709.569 254.636C709.936 254.827 710.249 255.084 710.487 255.389C710.724 255.693 710.88 256.038 710.943 256.398Z" fill="#37474F"/>
<path d="M560.073 410.141V330.258C560.1 329.857 560.238 329.468 560.477 329.121C560.715 328.775 561.048 328.481 561.447 328.263L709.602 255.947C710.345 255.579 710.959 255.879 710.959 256.617V336.5C710.933 336.899 710.797 337.288 710.561 337.634C710.325 337.98 709.997 338.275 709.602 338.495L561.447 410.811C560.752 411.166 560.073 410.879 560.073 410.141Z" fill="#455A64"/>
<path opacity="0.2" d="M561.443 410.811C561.017 410.986 560.55 411.077 560.077 411.077C559.604 411.077 559.137 410.986 558.712 410.811L553.864 408.434C553.47 408.22 553.142 407.93 552.906 407.588C552.67 407.246 552.533 406.862 552.506 406.467V326.638C552.523 326.222 552.668 325.817 552.926 325.463L560.505 329.124C560.26 329.467 560.121 329.857 560.101 330.258V410.141C560.069 410.811 560.635 411.166 561.443 410.811Z" fill="#263238"/>
<path d="M578.916 391.537C578.899 391.547 578.879 391.552 578.859 391.552C578.839 391.552 578.819 391.547 578.802 391.537C578.797 391.526 578.794 391.514 578.794 391.502C578.794 391.491 578.797 391.479 578.802 391.468V391.017L577.186 391.837C577.171 391.843 577.155 391.846 577.138 391.846C577.121 391.846 577.105 391.843 577.089 391.837V391.769V391.291C577.075 391.214 577.075 391.135 577.089 391.058L578.705 388.572C578.725 388.532 578.752 388.495 578.786 388.463H578.899L579.707 388.067C579.707 388.067 579.788 388.067 579.804 388.067V388.135V389.87L580.257 389.651C580.273 389.641 580.293 389.636 580.313 389.636C580.334 389.636 580.354 389.641 580.37 389.651V390.143C580.384 390.174 580.384 390.208 580.37 390.239L580.257 390.334L579.804 390.553V391.017C579.815 391.053 579.815 391.091 579.804 391.127C579.785 391.163 579.751 391.192 579.707 391.209L578.916 391.537ZM578.786 390.293V389.46L578.011 390.676L578.786 390.293Z" fill="white"/>
<path d="M582.083 388.285C582.089 388.322 582.089 388.358 582.083 388.395L581.97 388.477L581.275 388.818C581.275 388.818 581.194 388.818 581.178 388.818V388.231C581.165 388.195 581.165 388.157 581.178 388.122C581.185 388.102 581.198 388.085 581.214 388.07C581.231 388.056 581.252 388.045 581.275 388.04L581.97 387.684H582.083C582.092 387.707 582.092 387.731 582.083 387.753V388.285ZM582.083 389.87C582.089 389.906 582.089 389.943 582.083 389.979L581.97 390.061L581.275 390.403C581.275 390.403 581.194 390.403 581.178 390.403V390.334V389.747C581.165 389.712 581.165 389.673 581.178 389.638C581.185 389.618 581.198 389.601 581.214 389.587C581.231 389.572 581.252 389.562 581.275 389.556L581.97 389.214C581.986 389.204 582.006 389.199 582.026 389.199C582.047 389.199 582.067 389.204 582.083 389.214V389.87Z" fill="white"/>
<path d="M584.798 388.668C584.798 388.668 584.717 388.668 584.685 388.668C584.679 388.657 584.676 388.646 584.676 388.634C584.676 388.622 584.679 388.61 584.685 388.6V388.135L582.988 388.969H582.891V388.49C582.893 388.408 582.921 388.328 582.972 388.258L584.588 385.772L584.669 385.663C584.699 385.633 584.738 385.609 584.782 385.595L585.59 385.198C585.59 385.198 585.671 385.198 585.687 385.198V385.267V387.001L586.155 386.769H586.252C586.259 386.78 586.263 386.791 586.263 386.803C586.263 386.815 586.259 386.827 586.252 386.838V387.316C586.266 387.351 586.266 387.389 586.252 387.425L586.155 387.521L585.687 387.739V388.204C585.698 388.239 585.698 388.277 585.687 388.313C585.667 388.349 585.633 388.378 585.59 388.395L584.798 388.668ZM584.669 387.411V386.578L583.893 387.794L584.669 387.411Z" fill="white"/>
<path d="M684.521 338.905C684.525 339.088 684.481 339.27 684.392 339.437C684.311 339.628 684.197 339.808 684.053 339.97C683.898 340.142 683.725 340.302 683.536 340.448C683.351 340.587 683.151 340.711 682.938 340.817C682.746 340.914 682.539 340.987 682.324 341.036C682.153 341.068 681.977 341.068 681.806 341.036C681.667 341.013 681.542 340.95 681.451 340.858C681.361 340.73 681.316 340.583 681.322 340.435C681.306 340.344 681.306 340.252 681.322 340.161L681.419 339.902C681.449 339.815 681.492 339.733 681.548 339.656L681.677 339.424L682.711 337.757V337.661L682.824 337.579L683.681 337.17V337.238L682.97 338.385C683.139 338.315 683.318 338.265 683.503 338.235C683.647 338.207 683.796 338.207 683.94 338.235C684.064 338.275 684.172 338.347 684.247 338.44C684.401 338.562 684.498 338.727 684.521 338.905ZM682.324 339.984C682.305 340.033 682.305 340.085 682.324 340.134C682.37 340.149 682.422 340.149 682.469 340.134C682.533 340.147 682.599 340.147 682.663 340.134L682.889 340.052L683.099 339.915C683.172 339.868 683.237 339.813 683.293 339.752C683.347 339.686 683.396 339.618 683.439 339.547C683.454 339.479 683.454 339.409 683.439 339.342C683.457 339.293 683.457 339.24 683.439 339.191C683.391 339.179 683.34 339.179 683.293 339.191C683.231 339.171 683.162 339.171 683.099 339.191C683.024 339.207 682.952 339.235 682.889 339.273C682.804 339.306 682.727 339.353 682.663 339.41C682.59 339.458 682.525 339.513 682.469 339.574C682.409 339.636 682.36 339.705 682.324 339.779C682.308 339.847 682.308 339.916 682.324 339.984Z" fill="white"/>
<path d="M686.234 337.402C686.245 337.438 686.245 337.475 686.234 337.511L686.137 337.593L685.442 337.935C685.442 337.935 685.361 337.935 685.329 337.935C685.323 337.924 685.32 337.912 685.32 337.901C685.32 337.889 685.323 337.877 685.329 337.866V337.402C685.322 337.366 685.322 337.329 685.329 337.293C685.354 337.255 685.394 337.225 685.442 337.211L686.137 336.869C686.137 336.869 686.218 336.869 686.234 336.869C686.25 336.869 686.234 336.869 686.234 336.869V337.402ZM686.234 338.987C686.245 339.022 686.245 339.06 686.234 339.096C686.21 339.13 686.177 339.158 686.137 339.178L685.442 339.519C685.442 339.519 685.361 339.519 685.329 339.519V338.932C685.322 338.896 685.322 338.859 685.329 338.823C685.354 338.785 685.394 338.755 685.442 338.741L686.137 338.399C686.137 338.399 686.218 338.399 686.234 338.399C686.25 338.399 686.234 338.399 686.234 338.399V338.987Z" fill="white"/>
<path d="M689.854 334.219H690.032C690.039 334.23 690.043 334.241 690.043 334.253C690.043 334.265 690.039 334.277 690.032 334.288V334.766C690.039 334.802 690.039 334.839 690.032 334.875C690.035 334.911 690.035 334.948 690.032 334.984L689.385 335.845C689.606 335.785 689.843 335.785 690.064 335.845C690.16 335.886 690.237 335.952 690.287 336.033C690.336 336.114 690.354 336.206 690.339 336.296C690.33 336.649 690.182 336.99 689.919 337.265C689.592 337.605 689.192 337.888 688.739 338.099C688.528 338.208 688.299 338.291 688.06 338.345C687.896 338.383 687.723 338.383 687.559 338.345C687.442 338.338 687.333 338.294 687.252 338.222C687.175 338.146 687.135 338.048 687.139 337.948C687.125 337.918 687.125 337.884 687.139 337.853C687.157 337.824 687.186 337.8 687.22 337.785L687.899 337.457C687.924 337.446 687.951 337.44 687.979 337.44C688.008 337.44 688.035 337.446 688.06 337.457H688.189H688.383C688.5 337.444 688.612 337.406 688.707 337.347C688.868 337.27 689.014 337.173 689.143 337.061C689.194 337.02 689.234 336.971 689.262 336.917C689.289 336.863 689.304 336.805 689.305 336.746C689.305 336.637 689.305 336.596 689.143 336.596C688.989 336.62 688.842 336.666 688.707 336.733L688.27 336.951C688.27 336.951 688.27 336.951 688.173 336.951V336.569C688.166 336.533 688.166 336.496 688.173 336.459C688.197 336.421 688.224 336.385 688.254 336.35L688.82 335.585L687.43 336.268C687.43 336.268 687.349 336.268 687.317 336.268C687.285 336.268 687.317 336.268 687.317 336.268V335.79C687.314 335.749 687.326 335.709 687.352 335.674C687.379 335.64 687.417 335.613 687.462 335.599L689.854 334.219Z" fill="white"/>
<path d="M692.537 332.867C692.752 332.758 692.987 332.679 693.232 332.635C693.385 332.598 693.547 332.598 693.7 332.635C693.831 332.688 693.935 332.781 693.991 332.894C694.055 333.025 694.094 333.163 694.104 333.304V334.11C694.089 334.29 694.051 334.469 693.991 334.643C693.924 334.827 693.826 335.001 693.7 335.162C693.568 335.345 693.411 335.515 693.232 335.667C693.02 335.834 692.787 335.981 692.537 336.104C692.321 336.215 692.087 336.297 691.842 336.35C691.684 336.394 691.515 336.394 691.357 336.35C691.238 336.293 691.143 336.208 691.082 336.104C691.017 335.97 690.978 335.826 690.969 335.681C690.969 335.558 690.969 335.435 690.969 335.285C690.969 335.134 690.969 335.011 690.969 334.875C690.985 334.699 691.023 334.525 691.082 334.356C691.153 334.171 691.245 333.993 691.357 333.823C691.494 333.639 691.657 333.469 691.842 333.318C692.054 333.147 692.287 332.996 692.537 332.867ZM693.102 334.602C693.119 334.347 693.119 334.091 693.102 333.837C693.111 333.773 693.111 333.709 693.102 333.645C693.085 333.601 693.051 333.563 693.005 333.536C692.978 333.525 692.947 333.519 692.917 333.519C692.886 333.519 692.856 333.525 692.828 333.536C692.736 333.55 692.649 333.577 692.569 333.618C692.468 333.666 692.376 333.726 692.294 333.796C692.23 333.853 692.176 333.917 692.133 333.987C692.084 334.054 692.051 334.128 692.036 334.205C692.028 334.278 692.028 334.351 692.036 334.424C692.02 334.679 692.02 334.934 692.036 335.189C692.027 335.253 692.027 335.317 692.036 335.38C692.024 335.421 692.024 335.463 692.036 335.503C692.094 335.517 692.156 335.517 692.214 335.503C692.311 335.484 692.404 335.452 692.488 335.408C692.58 335.36 692.667 335.305 692.747 335.244C692.816 335.182 692.876 335.113 692.925 335.039C692.971 334.976 693.004 334.906 693.022 334.834C693.053 334.781 693.08 334.726 693.102 334.67V334.602Z" fill="white"/>
<path opacity="0.3" d="M596.482 378.764L674.567 340.653C675.843 340.025 676.878 340.475 676.878 341.65C676.823 342.308 676.585 342.945 676.184 343.51C675.782 344.075 675.228 344.552 674.567 344.901L596.482 383.013C595.205 383.641 594.155 383.19 594.155 382.016C594.211 381.357 594.451 380.719 594.856 380.154C595.26 379.588 595.818 379.112 596.482 378.764Z" fill="white"/>
<path d="M596.482 378.764L655.11 350.147C656.387 349.518 657.437 349.969 657.437 351.144C657.377 351.802 657.135 352.439 656.731 353.003C656.327 353.568 655.772 354.045 655.11 354.395L596.482 383.013C595.205 383.641 594.155 383.19 594.155 382.016C594.211 381.357 594.451 380.719 594.856 380.154C595.26 379.588 595.818 379.112 596.482 378.764Z" fill="white"/>
<path d="M704.431 290.958L697.514 294.318C694.67 295.684 689.709 298.321 686.865 297.665C684.473 297.119 682.631 294.4 679.334 296.012C677.249 297.023 674.939 303.266 670.882 305.246C666.826 307.227 664.418 301.64 663.109 298.758C661.8 295.876 659.49 290.48 654.658 292.829C649.826 295.179 647.321 303.443 644.251 309.508C641.18 315.573 637.189 321.447 632.26 323.851C626.442 326.693 622.435 325.313 619.704 326.652C616.973 327.99 614.678 332.225 611.624 334.67C608.909 336.897 604.723 339.041 602.316 337.402C599.908 335.763 598.179 331.556 595.755 332.73C593.331 333.905 591.375 340.708 589.08 344.109C586.786 347.51 584.232 349.573 577.461 352.865L564.63 359.121V359.9L570.157 357.168C572.92 355.802 576.815 354.04 579.417 354.969C582.019 355.898 582.132 356.745 584.426 355.624C586.721 354.504 587.658 352.892 589.274 350.693C590.339 349.001 591.862 347.545 593.718 346.445C595.334 345.612 597.548 346.445 598.89 347.538C600.231 348.631 601.54 349.819 603.528 348.904C605.603 347.605 607.214 345.846 608.182 343.822C609.474 341.691 610.185 340.011 611.608 339.301C613.177 338.69 614.95 338.564 616.617 338.946C619.319 339.317 622.087 338.83 624.39 337.58C627.751 335.94 631.662 333.044 636.575 325.641L644.024 321.994C649.454 319.357 653.203 317.814 655.692 318.305C658.795 318.906 663.061 323.961 667.699 321.679C672.337 319.398 673.694 313.483 675.989 309.577C677.807 305.867 681.146 302.836 685.394 301.039L704.366 291.778L704.431 290.958Z" fill="#E63946"/>
<path opacity="0.2" d="M663.109 321.871C660.314 320.969 657.777 318.674 655.757 318.278C653.268 317.786 649.519 319.33 644.089 321.966L636.704 325.613C641.002 319.098 645.091 308.894 646.626 304.85C647.289 303.129 648.032 301.408 648.905 299.728C649.78 297.919 650.932 296.215 652.331 294.66C654.738 292.543 656.548 292.31 657.712 294.769C658.875 297.228 658.019 304.55 658.229 310.765C658.439 316.98 660.378 320.477 663.109 321.871Z" fill="black"/>
<path opacity="0.2" d="M602.364 337.402C604.772 339.014 608.957 336.869 611.672 334.67C614.678 332.225 616.956 327.99 619.752 326.652C622.548 325.313 626.491 326.652 632.308 323.851C634.219 322.859 635.895 321.576 637.253 320.068C635.136 322.799 631.921 327.908 625.634 331.747C621.982 333.973 617.247 335.339 615.146 336.364C613.022 337.377 611.292 338.891 610.169 340.721C609.571 341.555 609.022 342.62 608.295 343.822C607.327 345.846 605.716 347.605 603.64 348.904C603.265 349.112 602.832 349.233 602.383 349.255C601.935 349.276 601.488 349.198 601.087 349.027C599.326 347.866 598.534 345.325 598.308 339.97C598.033 333.782 596.999 332.58 595.851 332.758C598.227 331.61 599.956 335.858 602.364 337.402Z" fill="black"/>
<path opacity="0.2" d="M658.164 310.765C657.954 304.55 658.827 297.228 657.647 294.769C656.855 293.103 655.773 292.679 654.415 293.226C656.468 292.993 658.278 295.739 657.082 302.501C656.419 306.244 654.464 313.265 655.466 318.237C655.579 318.23 655.692 318.23 655.805 318.237C657.825 318.633 660.362 320.969 663.158 321.83C660.378 320.477 658.374 316.994 658.164 310.765Z" fill="black"/>
<path opacity="0.2" d="M636.704 325.613L640.825 323.592C642.267 320.314 643.513 316.977 644.558 313.593C646.174 308.689 647.402 302.924 648.905 299.728C648.032 301.408 647.289 303.129 646.626 304.85C645.026 308.894 640.938 319.098 636.704 325.613Z" fill="black"/>
<path opacity="0.5" d="M677.104 298.444C675.488 300.739 673.581 303.908 670.866 305.274C666.81 307.254 664.402 301.667 663.093 298.785C662.705 297.952 662.237 296.886 661.655 295.876C663.271 298.799 664.628 304.154 665.614 307.172C666.454 309.74 667.311 311.489 669.686 310.71C672.062 309.932 673.694 305.697 674.68 303.416C675.355 301.714 676.164 300.053 677.104 298.444Z" fill="white"/>
<path opacity="0.2" d="M677.508 302.282C676.28 305.492 675.714 309.03 673.791 314.194C674.551 312.554 675.246 310.915 676.054 309.549C677.872 305.84 681.211 302.809 685.459 301.012L691.68 297.979C685.685 300.903 683.099 298.662 681.661 297.979C680.223 297.296 678.72 299.072 677.508 302.282Z" fill="black"/>
<path opacity="0.2" d="M680.821 297.856C679.657 298.048 678.494 299.687 677.508 302.282C676.28 305.492 675.714 309.03 673.791 314.194C674.551 312.554 675.246 310.915 676.054 309.549C676.635 308.552 677.185 307.691 677.67 306.899C677.896 305.369 678.041 304.031 678.138 303.238C678.51 300.875 679.528 298.649 680.821 297.856Z" fill="black"/>
<path opacity="0.2" d="M632.26 323.879C626.442 326.72 622.434 325.34 619.703 326.679C619.243 326.91 618.819 327.19 618.443 327.512C620.285 326.146 623.291 327.171 625.602 327.512C627.943 327.73 630.304 327.293 632.324 326.269C634.072 324.301 635.691 322.254 637.172 320.136C635.82 321.627 634.154 322.896 632.26 323.879Z" fill="black"/>
<path opacity="0.2" d="M598.259 339.997C598.486 345.352 599.277 347.893 601.039 349.054C601.44 349.225 601.887 349.304 602.335 349.282C602.783 349.261 603.217 349.14 603.592 348.931C605.483 347.792 606.969 346.238 607.891 344.437C605.548 347.169 602.025 347.62 601.023 345.024C600.021 342.429 599.988 338.823 599.294 336.364C598.599 333.905 597.807 332.635 596.676 332.58H596.449H596.288H596.191H596.062L595.803 332.676C596.95 332.607 597.92 333.809 598.259 339.997Z" fill="black"/>
<path opacity="0.5" d="M589.129 344.232C586.818 347.633 584.281 349.696 577.51 352.988L576.023 353.712C584.572 349.614 587.917 350.625 590.131 346.677C592.345 342.729 593.217 336.118 594.332 334.26C592.555 336.678 590.939 341.5 589.129 344.232Z" fill="white"/>
<path opacity="0.5" d="M640.631 318.538C639.446 320.955 638.108 323.317 636.623 325.613C631.775 333.017 627.816 335.913 624.454 337.552C622.162 338.811 619.394 339.298 616.698 338.918C615.022 338.547 613.246 338.677 611.672 339.287C613.669 338.158 616.043 337.602 618.443 337.703C621.125 337.634 625.085 336.637 629.642 332.812C634.199 328.987 640.437 318.852 640.631 318.538Z" fill="white"/>
<path d="M617.085 351.677C617.112 351.657 617.147 351.645 617.182 351.645C617.218 351.645 617.253 351.657 617.279 351.677C617.309 351.743 617.309 351.816 617.279 351.882V352.332C617.302 352.427 617.302 352.525 617.279 352.619C617.264 352.66 617.238 352.698 617.205 352.731C617.172 352.764 617.131 352.791 617.085 352.81L615.259 353.712V361.17C615.256 361.27 615.228 361.367 615.179 361.457C615.136 361.535 615.069 361.601 614.985 361.648L614.581 361.84C614.57 361.851 614.557 361.86 614.541 361.867C614.526 361.873 614.509 361.876 614.492 361.876C614.475 361.876 614.458 361.873 614.442 361.867C614.427 361.86 614.414 361.851 614.403 361.84C614.371 361.814 614.347 361.781 614.333 361.746C614.319 361.71 614.315 361.672 614.322 361.635V354.176L612.48 355.078C612.452 355.096 612.418 355.105 612.383 355.105C612.348 355.105 612.314 355.096 612.286 355.078C612.229 355.021 612.2 354.948 612.205 354.873V354.409C612.209 354.314 612.237 354.221 612.286 354.136C612.286 354.04 612.399 353.972 612.48 353.944L617.085 351.677Z" fill="white"/>
<path d="M623.485 348.549C623.513 348.531 623.547 348.521 623.582 348.521C623.617 348.521 623.651 348.531 623.679 348.549C623.737 348.605 623.766 348.679 623.76 348.753V357.018C623.756 357.117 623.729 357.215 623.679 357.305C623.642 357.385 623.574 357.452 623.485 357.496L623.081 357.687C623.071 357.698 623.057 357.708 623.042 357.714C623.026 357.72 623.009 357.724 622.992 357.724C622.975 357.724 622.958 357.72 622.943 357.714C622.928 357.708 622.914 357.698 622.903 357.687C622.874 357.621 622.874 357.548 622.903 357.482V353.876L619.445 355.57V359.176C619.467 359.271 619.467 359.368 619.445 359.463C619.408 359.543 619.34 359.611 619.251 359.654L618.863 359.845C618.777 359.845 618.713 359.845 618.67 359.845C618.61 359.784 618.581 359.706 618.589 359.627V351.431C618.592 351.336 618.62 351.243 618.67 351.158C618.685 351.117 618.711 351.078 618.744 351.046C618.777 351.013 618.818 350.986 618.863 350.966L619.251 350.761C619.279 350.744 619.313 350.734 619.348 350.734C619.383 350.734 619.417 350.744 619.445 350.761C619.475 350.827 619.475 350.9 619.445 350.966V354.477L622.903 352.783V349.273C622.881 349.182 622.881 349.089 622.903 348.999C622.935 348.92 622.998 348.853 623.081 348.808L623.485 348.549Z" fill="white"/>
<path d="M629.69 353.33C629.716 353.313 629.747 353.304 629.779 353.304C629.811 353.304 629.843 353.313 629.868 353.33C629.9 353.356 629.924 353.388 629.938 353.424C629.952 353.459 629.956 353.497 629.949 353.534V353.999C629.955 354.095 629.927 354.19 629.868 354.272C629.83 354.352 629.769 354.423 629.69 354.477L625.715 356.417C625.687 356.434 625.653 356.444 625.618 356.444C625.583 356.444 625.549 356.434 625.521 356.417C625.463 356.36 625.434 356.286 625.44 356.212V348.016C625.444 347.917 625.471 347.819 625.521 347.729C625.521 347.633 625.634 347.565 625.715 347.538L629.609 345.639C629.633 345.62 629.665 345.609 629.698 345.609C629.731 345.609 629.763 345.62 629.787 345.639C629.805 345.671 629.814 345.706 629.814 345.741C629.814 345.777 629.805 345.812 629.787 345.844V346.308C629.817 346.402 629.817 346.501 629.787 346.595C629.75 346.671 629.688 346.738 629.609 346.786L626.377 348.357V351.089L629.399 349.614C629.425 349.597 629.456 349.588 629.488 349.588C629.52 349.588 629.552 349.597 629.577 349.614C629.635 349.671 629.664 349.744 629.658 349.819V350.283C629.656 350.378 629.628 350.472 629.577 350.557C629.539 350.637 629.478 350.707 629.399 350.761L626.377 352.223V354.955L629.69 353.33Z" fill="white"/>
<path d="M635.783 342.429C636.093 342.252 636.459 342.157 636.833 342.156C637.114 342.165 637.386 342.235 637.625 342.361C637.834 342.497 638.001 342.676 638.11 342.88C638.213 343.083 638.273 343.301 638.287 343.522C638.308 343.598 638.308 343.677 638.287 343.754C638.251 343.816 638.195 343.868 638.126 343.904L637.722 344.109C637.67 344.126 637.612 344.126 637.56 344.109C637.56 344.109 637.463 344.041 637.415 343.945C637.373 343.858 637.319 343.775 637.253 343.699C637.179 343.598 637.073 343.518 636.946 343.467C636.81 343.397 636.652 343.364 636.494 343.371C636.263 343.379 636.039 343.441 635.847 343.549C635.657 343.642 635.483 343.757 635.33 343.89C635.154 344.026 635.001 344.183 634.878 344.355C634.744 344.535 634.636 344.727 634.555 344.929C634.475 345.136 634.437 345.353 634.441 345.571C634.428 345.744 634.467 345.918 634.555 346.076C634.595 346.134 634.649 346.184 634.713 346.224C634.777 346.264 634.849 346.292 634.926 346.308C635.134 346.343 635.348 346.343 635.556 346.308C635.871 346.286 636.184 346.249 636.494 346.199C636.804 346.161 637.12 346.161 637.431 346.199C637.667 346.218 637.891 346.294 638.077 346.418C638.248 346.545 638.371 346.711 638.433 346.896C638.509 347.159 638.547 347.43 638.546 347.702C638.546 348.09 638.481 348.476 638.352 348.849C638.222 349.229 638.043 349.595 637.819 349.942C637.59 350.282 637.307 350.595 636.978 350.871C636.667 351.161 636.301 351.405 635.896 351.595C635.581 351.767 635.22 351.87 634.845 351.895C634.557 351.916 634.268 351.859 634.021 351.731C633.788 351.613 633.598 351.443 633.472 351.24C633.335 351.011 633.263 350.758 633.262 350.502C633.24 350.43 633.24 350.355 633.262 350.283C633.294 350.219 633.344 350.163 633.407 350.119L633.811 349.928C633.839 349.917 633.869 349.912 633.9 349.912C633.931 349.912 633.961 349.917 633.989 349.928C633.989 349.928 634.086 349.997 634.118 350.092C634.161 350.199 634.221 350.3 634.296 350.393C634.385 350.496 634.501 350.58 634.635 350.639C634.794 350.692 634.965 350.715 635.136 350.707C635.385 350.68 635.623 350.606 635.831 350.488C636.071 350.376 636.289 350.233 636.477 350.065C636.691 349.901 636.876 349.712 637.027 349.505C637.186 349.307 637.311 349.09 637.399 348.863C637.494 348.649 637.543 348.422 637.544 348.193C637.563 348.018 637.505 347.844 637.382 347.702C637.268 347.587 637.106 347.514 636.93 347.497C636.69 347.456 636.443 347.456 636.203 347.497C635.882 347.528 635.564 347.573 635.249 347.633C634.971 347.675 634.687 347.675 634.409 347.633C634.191 347.595 633.993 347.5 633.844 347.36C633.691 347.212 633.585 347.033 633.537 346.841C633.468 346.59 633.435 346.333 633.44 346.076C633.443 345.74 633.492 345.406 633.585 345.079C633.685 344.729 633.831 344.39 634.021 344.068C634.218 343.743 634.463 343.44 634.748 343.167C635.045 342.876 635.394 342.627 635.783 342.429Z" fill="white"/>
<path d="M639.5 344.082C639.504 343.595 639.563 343.11 639.677 342.634C639.8 342.164 639.979 341.707 640.211 341.268C640.437 340.855 640.719 340.465 641.051 340.107C641.378 339.778 641.765 339.497 642.198 339.273C642.547 339.089 642.95 338.99 643.362 338.987C643.679 339.009 643.976 339.125 644.202 339.314C644.453 339.559 644.635 339.849 644.735 340.161C644.858 340.572 644.918 340.994 644.913 341.418C644.913 342.169 644.913 342.934 644.913 343.699C644.905 344.186 644.84 344.671 644.719 345.147C644.6 345.617 644.421 346.075 644.186 346.513C643.97 346.927 643.687 347.313 643.346 347.661C643.026 347.995 642.637 348.277 642.198 348.494C641.856 348.679 641.458 348.779 641.051 348.781C640.895 348.776 640.741 348.744 640.599 348.688C640.458 348.632 640.331 348.552 640.227 348.453C639.961 348.212 639.777 347.914 639.693 347.592C639.557 347.188 639.492 346.769 639.5 346.349C639.467 345.598 639.467 344.847 639.5 344.082ZM643.992 341.951C643.991 341.623 643.937 341.296 643.831 340.981C643.779 340.766 643.649 340.57 643.459 340.421C643.386 340.362 643.3 340.316 643.205 340.285C643.111 340.255 643.01 340.241 642.909 340.243C642.659 340.262 642.416 340.327 642.198 340.435C641.945 340.575 641.712 340.74 641.503 340.926C641.28 341.139 641.095 341.378 640.954 341.637C640.786 341.934 640.656 342.245 640.566 342.566C640.482 342.935 640.434 343.31 640.421 343.686C640.421 344.082 640.421 344.437 640.421 344.778C640.421 345.12 640.421 345.461 640.421 345.844C640.426 346.171 640.474 346.496 640.566 346.814C640.633 347.027 640.767 347.22 640.954 347.374C641.027 347.433 641.113 347.479 641.208 347.509C641.302 347.54 641.402 347.554 641.503 347.551C641.752 347.535 641.992 347.465 642.198 347.346C642.467 347.218 642.708 347.052 642.909 346.855C643.135 346.644 643.321 346.404 643.459 346.144C643.631 345.855 643.756 345.547 643.831 345.229C643.929 344.857 643.983 344.477 643.992 344.095C643.992 343.713 643.992 343.344 643.992 343.016C643.992 342.688 643.992 342.333 643.992 341.951Z" fill="white"/>
<path d="M650.876 344.136C650.779 344.136 650.715 344.136 650.65 344.136C650.583 344.081 650.529 344.016 650.488 343.945L647.256 339.246V345.598C647.253 345.697 647.225 345.795 647.176 345.885C647.144 345.964 647.081 346.031 646.998 346.076L646.594 346.281C646.566 346.299 646.532 346.308 646.497 346.308C646.462 346.308 646.428 346.299 646.4 346.281C646.37 346.215 646.37 346.142 646.4 346.076V337.812C646.378 337.717 646.378 337.62 646.4 337.525C646.416 337.484 646.441 337.446 646.474 337.413C646.507 337.38 646.548 337.353 646.594 337.334L646.933 337.156C647.03 337.156 647.095 337.156 647.159 337.156C647.222 337.209 647.276 337.269 647.321 337.334L650.553 342.033V335.749C650.557 335.65 650.584 335.552 650.634 335.462C650.666 335.383 650.729 335.316 650.812 335.271L651.216 335.066C651.244 335.048 651.278 335.039 651.313 335.039C651.348 335.039 651.382 335.048 651.41 335.066C651.439 335.132 651.439 335.205 651.41 335.271V343.535C651.432 343.63 651.432 343.727 651.41 343.822C651.394 343.863 651.368 343.901 651.335 343.934C651.302 343.967 651.261 343.994 651.216 344.013L650.876 344.136Z" fill="white"/>
<path d="M652.864 337.498C652.871 337.039 652.931 336.581 653.042 336.132C653.157 335.661 653.336 335.202 653.575 334.766C653.796 334.34 654.09 333.944 654.448 333.591C654.796 333.247 655.211 332.956 655.676 332.73C656.022 332.536 656.424 332.423 656.839 332.403C657.146 332.402 657.446 332.484 657.696 332.635C657.919 332.775 658.092 332.964 658.197 333.181C658.307 333.403 658.372 333.638 658.391 333.878C658.411 333.95 658.411 334.025 658.391 334.096C658.359 334.164 658.302 334.222 658.229 334.26L657.825 334.452C657.68 334.533 657.583 334.533 657.55 334.452C657.475 334.299 657.383 334.152 657.276 334.014C657.191 333.892 657.068 333.793 656.92 333.728C656.765 333.662 656.59 333.638 656.419 333.659C656.178 333.692 655.947 333.767 655.74 333.878C655.464 334.014 655.214 334.185 654.997 334.383C654.763 334.605 654.567 334.853 654.415 335.121C654.23 335.413 654.094 335.726 654.011 336.05C653.914 336.413 653.86 336.784 653.85 337.156C653.85 337.539 653.85 337.894 653.85 338.222C653.85 338.549 653.85 338.891 653.85 339.273C653.851 339.61 653.905 339.946 654.011 340.271C654.077 340.491 654.218 340.69 654.415 340.844C654.493 340.904 654.585 340.95 654.686 340.978C654.786 341.006 654.892 341.017 654.997 341.008C655.262 340.985 655.516 340.91 655.74 340.79C656.011 340.658 656.257 340.493 656.468 340.298C656.719 340.096 656.922 339.855 657.066 339.588C657.251 339.291 657.387 338.973 657.47 338.645C657.571 338.255 657.62 337.856 657.615 337.457V337.102L656.193 337.785C656.169 337.804 656.137 337.814 656.104 337.814C656.071 337.814 656.039 337.804 656.015 337.785C655.958 337.728 655.929 337.654 655.934 337.58V337.129C655.938 337.03 655.966 336.932 656.015 336.842C656.047 336.763 656.11 336.696 656.193 336.651L658.278 335.626C658.306 335.609 658.34 335.599 658.374 335.599C658.409 335.599 658.443 335.609 658.471 335.626C658.501 335.692 658.501 335.765 658.471 335.831V337.047C658.473 337.552 658.408 338.056 658.278 338.549C658.157 339.021 657.973 339.479 657.728 339.915C657.505 340.336 657.211 340.727 656.855 341.077C656.516 341.414 656.112 341.7 655.66 341.923C655.295 342.128 654.869 342.242 654.431 342.251C654.267 342.249 654.106 342.218 653.956 342.162C653.806 342.106 653.671 342.025 653.559 341.923C653.304 341.677 653.127 341.382 653.042 341.063C652.912 340.644 652.847 340.212 652.848 339.779C652.858 339.023 652.864 338.263 652.864 337.498Z" fill="white"/>
</svg>
