<svg width="20" height="20" viewBox="0 0 20 20" fill="none" xmlns="http://www.w3.org/2000/svg">
<path d="M10.6667 14H12M16.6667 11.3333V10C16.6667 9.64637 16.5262 9.30724 16.2762 9.05719C16.0261 8.80714 15.687 8.66666 15.3334 8.66666H2.00002C1.6464 8.66666 1.30726 8.80714 1.05721 9.05719C0.807163 9.30724 0.666687 9.64637 0.666687 10V18C0.666687 18.3536 0.807163 18.6928 1.05721 18.9428C1.30726 19.1929 1.6464 19.3333 2.00002 19.3333H15.3334C15.687 19.3333 16.0261 19.1929 16.2762 18.9428C16.5262 18.6928 16.6667 18.3536 16.6667 18V16.6667V11.3333ZM16.6667 11.3333H11.3334C10.6261 11.3333 9.94783 11.6143 9.44773 12.1144C8.94764 12.6145 8.66669 13.2928 8.66669 14C8.66669 14.7072 8.94764 15.3855 9.44773 15.8856C9.94783 16.3857 10.6261 16.6667 11.3334 16.6667H16.6667V11.3333ZM16.6667 11.3333C17.3739 11.3333 18.0522 11.6143 18.5523 12.1144C19.0524 12.6145 19.3334 13.2928 19.3334 14C19.3334 14.7072 19.0524 15.3855 18.5523 15.8856C18.0522 16.3857 17.3739 16.6667 16.6667 16.6667V11.3333ZM4.66669 8.66666V4.66666C4.66669 3.6058 5.08811 2.58838 5.83826 1.83824C6.58841 1.08809 7.60582 0.666664 8.66669 0.666664C9.72755 0.666664 10.745 1.08809 11.4951 1.83824C12.2453 2.58838 12.6667 3.6058 12.6667 4.66666V8.66666H4.66669ZM16 14H17.3334H16ZM13.3334 14H14.6667H13.3334Z" stroke="#263238"/>
</svg>
