<svg width="50" height="50" viewBox="0 0 50 50" fill="none" xmlns="http://www.w3.org/2000/svg">
<path d="M22.1814 17.4384C21.785 17.2187 21.3382 17.1062 20.885 17.1121C20.4318 17.118 19.988 17.2421 19.5975 17.4721C19.2069 17.7021 18.8832 18.03 18.6582 18.4235C18.4333 18.8169 18.3149 19.2623 18.3148 19.7155V31.1821C18.3149 31.6354 18.4333 32.0807 18.6582 32.4742C18.8832 32.8676 19.2069 33.1955 19.5975 33.4255C19.988 33.6555 20.4318 33.7796 20.885 33.7855C21.3382 33.7914 21.785 33.6789 22.1814 33.4592L34.1752 26.8155C34.4192 26.6803 34.6225 26.4822 34.7641 26.2419C34.9057 26.0016 34.9803 25.7277 34.9803 25.4488C34.9803 25.1699 34.9057 24.896 34.7641 24.6557C34.6225 24.4154 34.4192 24.2173 34.1752 24.0821L22.1814 17.4384ZM24.5648 4.61548C13.0585 4.61548 3.73145 13.9426 3.73145 25.4488C3.73145 36.9551 13.0585 46.2821 24.5648 46.2821C36.071 46.2821 45.3981 36.9551 45.3981 25.4488C45.3981 13.9426 36.071 4.61548 24.5648 4.61548ZM6.85645 25.4488C6.85645 20.7523 8.72214 16.2481 12.0431 12.9271C15.3641 9.60617 19.8682 7.74048 24.5648 7.74048C29.2613 7.74048 33.7655 9.60617 37.0865 12.9271C40.4074 16.2481 42.2731 20.7523 42.2731 25.4488C42.2731 30.1453 40.4074 34.6495 37.0865 37.9705C33.7655 41.2914 29.2613 43.1571 24.5648 43.1571C19.8682 43.1571 15.3641 41.2914 12.0431 37.9705C8.72214 34.6495 6.85645 30.1453 6.85645 25.4488Z" fill="#E63946"/>
</svg>
