<svg width="25" height="25" viewBox="0 0 25 25" fill="none" xmlns="http://www.w3.org/2000/svg">
<path d="M12.5 12.5C15.3764 12.5 17.7083 10.1681 17.7083 7.29166C17.7083 4.41518 15.3764 2.08333 12.5 2.08333C9.62348 2.08333 7.29163 4.41518 7.29163 7.29166C7.29163 10.1681 9.62348 12.5 12.5 12.5Z" stroke="#263238" stroke-width="2"/>
<path d="M17.7083 14.5833H18.075C18.8365 14.5835 19.5718 14.8618 20.1426 15.3659C20.7134 15.87 21.0805 16.5652 21.175 17.3208L21.5823 20.575C21.6189 20.8682 21.5928 21.1657 21.5056 21.448C21.4184 21.7303 21.2722 21.9908 21.0767 22.2123C20.8811 22.4337 20.6407 22.6111 20.3714 22.7325C20.1021 22.854 19.81 22.9167 19.5146 22.9167H5.4854C5.18996 22.9167 4.89789 22.854 4.62857 22.7325C4.35925 22.6111 4.11884 22.4337 3.92329 22.2123C3.72774 21.9908 3.58153 21.7303 3.49436 21.448C3.40719 21.1657 3.38106 20.8682 3.41769 20.575L3.82394 17.3208C3.91842 16.5648 4.28583 15.8694 4.8571 15.3652C5.42837 14.8611 6.16413 14.583 6.92602 14.5833H7.29165" stroke="#263238" stroke-width="2" stroke-linecap="round" stroke-linejoin="round"/>
</svg>
