<svg width="25" height="25" viewBox="0 0 25 25" fill="none" xmlns="http://www.w3.org/2000/svg">
<path d="M12.5 2.08333C9.62812 2.08333 7.29167 4.41979 7.29167 7.29166C7.29167 10.1635 9.62812 12.5 12.5 12.5C15.3719 12.5 17.7083 10.1635 17.7083 7.29166C17.7083 4.41979 15.3719 2.08333 12.5 2.08333ZM12.5 10.4167C10.7771 10.4167 9.375 9.01458 9.375 7.29166C9.375 5.56874 10.7771 4.16666 12.5 4.16666C14.2229 4.16666 15.625 5.56874 15.625 7.29166C15.625 9.01458 14.2229 10.4167 12.5 10.4167ZM21.875 21.875V20.8333C21.875 16.8135 18.6031 13.5417 14.5833 13.5417H10.4167C6.39583 13.5417 3.125 16.8135 3.125 20.8333V21.875H5.20833V20.8333C5.20833 17.9615 7.54479 15.625 10.4167 15.625H14.5833C17.4552 15.625 19.7917 17.9615 19.7917 20.8333V21.875H21.875Z" fill="#263238"/>
</svg>
