<svg width="242" height="58" viewBox="0 0 242 58" fill="none" xmlns="http://www.w3.org/2000/svg">
<line x1="12" y1="36" x2="12" y2="24" stroke="#F1FAEE" stroke-width="2"/>
<line x1="15" y1="35" x2="15" y2="27" stroke="#F1FAEE" stroke-width="2"/>
<line x1="9" y1="41.1145" x2="9" y2="23.1145" stroke="#F1FAEE" stroke-width="2"/>
<line x1="6" y1="44.0059" x2="6" y2="19.0059" stroke="#F1FAEE" stroke-width="2"/>
<line x1="2.50146" y1="46.8799" x2="2.50146" y2="13.8799" stroke="#F1FAEE" stroke-width="2"/>
<line x1="120.114" y1="41.6484" x2="120.114" y2="14.8792" stroke="#F1FAEE" stroke-width="2"/>
<line x1="115.818" y1="38.6667" x2="115.818" y2="20.8206" stroke="#F1FAEE" stroke-width="2"/>
<line x1="115.818" y1="38.6667" x2="115.818" y2="20.8206" stroke="#F1FAEE" stroke-width="2"/>
<line x1="156.318" y1="38.6667" x2="156.318" y2="20.8206" stroke="#F1FAEE" stroke-width="2"/>
<line x1="110.909" y1="37.1794" x2="110.909" y2="25.282" stroke="#F1FAEE" stroke-width="2"/>
<line x1="106" y1="34.2051" x2="106" y2="29.7435" stroke="#F1FAEE" stroke-width="2"/>
<line x1="160" y1="37.1794" x2="160" y2="25.282" stroke="#F1FAEE" stroke-width="2"/>
<line x1="125.636" y1="47.5896" x2="125.636" y2="10.4101" stroke="#F1FAEE" stroke-width="2"/>
<line x1="131.773" y1="55.0256" x2="131.773" y2="5.94872" stroke="#F1FAEE" stroke-width="2"/>
<line x1="152.636" y1="46.2729" x2="152.636" y2="19.5037" stroke="#F1FAEE" stroke-width="2"/>
<line x1="148.954" y1="50.573" x2="148.954" y2="13.3935" stroke="#F1FAEE" stroke-width="2"/>
<line x1="144.661" y1="54.8474" x2="144.661" y2="5.77049" stroke="#F1FAEE" stroke-width="2"/>
<line x1="136.682" y1="58" x2="136.682" stroke="#F1FAEE" stroke-width="2"/>
<line x1="140.364" y1="58" x2="140.364" stroke="#F1FAEE" stroke-width="2"/>
<line x1="48" y1="33" x2="48" y2="26" stroke="#F1FAEE" stroke-width="2"/>
<line x1="51" y1="35" x2="51" y2="25" stroke="#F1FAEE" stroke-width="2"/>
<line x1="54" y1="36" x2="54" y2="23" stroke="#F1FAEE" stroke-width="2"/>
<line x1="57" y1="38" x2="57" y2="21" stroke="#F1FAEE" stroke-width="2"/>
<line x1="60" y1="37" x2="60" y2="22" stroke="#F1FAEE" stroke-width="2"/>
<line x1="64" y1="35" x2="64" y2="24" stroke="#F1FAEE" stroke-width="2"/>
<line x1="68" y1="33" x2="68" y2="26" stroke="#F1FAEE" stroke-width="2"/>
<line x1="228" y1="31.0588" x2="228" y2="26.9412" stroke="#F1FAEE" stroke-width="2"/>
<line x1="229.35" y1="32.2354" x2="229.35" y2="26.353" stroke="#F1FAEE" stroke-width="2"/>
<line x1="230.7" y1="32.8235" x2="230.7" y2="25.1764" stroke="#F1FAEE" stroke-width="2"/>
<line x1="232.05" y1="34" x2="232.05" y2="24" stroke="#F1FAEE" stroke-width="2"/>
<line x1="233.4" y1="33.4119" x2="233.4" y2="24.5883" stroke="#F1FAEE" stroke-width="2"/>
<line x1="235.2" y1="32.2354" x2="235.2" y2="25.7648" stroke="#F1FAEE" stroke-width="2"/>
<line x1="237" y1="31.0588" x2="237" y2="26.9412" stroke="#F1FAEE" stroke-width="2"/>
<line x1="14.9834" y1="30.5" x2="22.9834" y2="30.5" stroke="#F1FAEE" stroke-width="2"/>
<line x1="24.9834" y1="30.5" x2="32.9834" y2="30.5" stroke="#F1FAEE" stroke-width="2"/>
<line x1="70" y1="30.5" x2="78" y2="30.5" stroke="#F1FAEE" stroke-width="2"/>
<line x1="160" y1="30.5" x2="168" y2="30.5" stroke="#F1FAEE" stroke-width="2"/>
<line x1="170" y1="30.5" x2="178" y2="30.5" stroke="#F1FAEE" stroke-width="2"/>
<line x1="240" y1="30.5" x2="248" y2="30.5" stroke="#F1FAEE" stroke-width="2"/>
<line x1="180" y1="30.5" x2="184" y2="30.5" stroke="#F1FAEE" stroke-width="2"/>
<line x1="180" y1="30.5" x2="184" y2="30.5" stroke="#F1FAEE" stroke-width="2"/>
<line x1="186" y1="30.5" x2="190" y2="30.5" stroke="#F1FAEE" stroke-width="2"/>
<line x1="192" y1="30.5" x2="200" y2="30.5" stroke="#F1FAEE" stroke-width="2"/>
<line x1="202" y1="30.5" x2="206" y2="30.5" stroke="#F1FAEE" stroke-width="2"/>
<line x1="208" y1="30.5" x2="212" y2="30.5" stroke="#F1FAEE" stroke-width="2"/>
<line x1="213" y1="30.5" x2="217" y2="30.5" stroke="#F1FAEE" stroke-width="2"/>
<line x1="218" y1="30.5" x2="226" y2="30.5" stroke="#F1FAEE" stroke-width="2"/>
<line x1="80" y1="30.5" x2="84" y2="30.5" stroke="#F1FAEE" stroke-width="2"/>
<line x1="87" y1="30.5" x2="91" y2="30.5" stroke="#F1FAEE" stroke-width="2"/>
<line x1="93" y1="30.5" x2="101" y2="30.5" stroke="#F1FAEE" stroke-width="2"/>
<line x1="34.9834" y1="30.5" x2="42.9834" y2="30.5" stroke="#F1FAEE" stroke-width="2"/>
</svg>
